<svg version="1.1" xmlns="http://www.w3.org/2000/svg" xmlns:xlink="http://www.w3.org/1999/xlink" width="1416.1290666269438" height="724.9999999999995"><defs/><g transform="translate(0,0)"><g><rect fill="#FFFFFF" stroke="none" x="0" y="0" width="1416.1290666269438" height="724.9999999999995"/></g><g transform="translate(0,0) matrix(1,0,0,1,521.826822947786,249.28709589254026)"><g><g transform="translate(0,0) scale(2.880513841608322,0.8645607545096573)"><g><path fill="#cfe2f3" stroke="none" d="M 0 0 L 100 0 Q 100 0 100 0 L 100 100 Q 100 100 100 100 L 0 100 Q 0 100 0 100 L 0 0 Q 0 0 0 0 Z"/><g transform="scale(0.34716028284788747,1.1566567124217408)"><path fill="none" stroke="none" d="M 0 0 L 288.0513841608322 0 Q 288.0513841608322 0 288.0513841608322 0 L 288.0513841608322 86.45607545096573 Q 288.0513841608322 86.45607545096573 288.0513841608322 86.45607545096573 L 0 86.45607545096573 Q 0 86.45607545096573 0 86.45607545096573 L 0 0 Q 0 0 0 0 Z"/><path fill="none" stroke="#000000" d="M 0 0 M 0 0 L 288.0513841608322 0 Q 288.0513841608322 0 288.0513841608322 0 L 288.0513841608322 86.45607545096573 Q 288.0513841608322 86.45607545096573 288.0513841608322 86.45607545096573 L 0 86.45607545096573 Q 0 86.45607545096573 0 86.45607545096573 L 0 0 Q 0 0 0 0 Z" stroke-miterlimit="10" stroke-width="2"/></g></g></g></g></g><g transform="scale(1,1) matrix(1,0,0,1,526.6276793504666,249.28709589254026) translate(2,22.728037725482864)"><text fill="#000000" stroke="none" font-family="Arial" font-size="36px" font-style="normal" font-weight="bold" text-decoration="none" x="1.2053044277355411" y="33">PERSONAGGIO</text></g><g transform="translate(0,0) matrix(1,0,0,1,981.6290666269442,460)"><g><g transform="translate(0,0) scale(2.414925373134324,0.7957711442786103)"><g><path fill="#cfe2f3" stroke="none" d="M 0 0 L 100 0 Q 100 0 100 0 L 100 100 Q 100 100 100 100 L 0 100 Q 0 100 0 100 L 0 0 Q 0 0 0 0 Z"/><g transform="scale(0.41409147095179305,1.2566427008440084)"><path fill="none" stroke="none" d="M 0 0 L 241.49253731343242 0 Q 241.49253731343242 0 241.49253731343242 0 L 241.49253731343242 79.57711442786103 Q 241.49253731343242 79.57711442786103 241.49253731343242 79.57711442786103 L 0 79.57711442786103 Q 0 79.57711442786103 0 79.57711442786103 L 0 0 Q 0 0 0 0 Z"/><path fill="none" stroke="#000000" d="M 0 0 M 0 0 L 241.49253731343242 0 Q 241.49253731343242 0 241.49253731343242 0 L 241.49253731343242 79.57711442786103 Q 241.49253731343242 79.57711442786103 241.49253731343242 79.57711442786103 L 0 79.57711442786103 Q 0 79.57711442786103 0 79.57711442786103 L 0 0 Q 0 0 0 0 Z" stroke-miterlimit="10" stroke-width="2"/></g></g></g></g></g><g transform="scale(1,1) matrix(1,0,0,1,985.6539422488347,460) translate(2,19.288557213930517)"><text fill="#000000" stroke="none" font-family="Arial" font-size="36px" font-style="normal" font-weight="bold" text-decoration="none" x="26.707721159825667" y="33">MISSIONE</text></g><g transform="translate(0,0) matrix(1,0,0,1,595.8525150282021,438.88184079602)"><g><g transform="translate(0,0) scale(1.4,0.609067164179105)"><g><path fill="#cfe2f3" stroke="none" d="M 0 0 L 100 0 Q 100 0 100 0 L 100 100 Q 100 100 100 100 L 0 100 Q 0 100 0 100 L 0 0 Q 0 0 0 0 Z"/><g transform="scale(0.7142857142857143,1.641855051154811)"><path fill="none" stroke="none" d="M 0 0 L 140 0 Q 140 0 140 0 L 140 60.9067164179105 Q 140 60.9067164179105 140 60.9067164179105 L 0 60.9067164179105 Q 0 60.9067164179105 0 60.9067164179105 L 0 0 Q 0 0 0 0 Z"/><path fill="none" stroke="#000000" d="M 0 0 M 0 0 L 140 0 Q 140 0 140 0 L 140 60.9067164179105 Q 140 60.9067164179105 140 60.9067164179105 L 0 60.9067164179105 Q 0 60.9067164179105 0 60.9067164179105 L 0 0 Q 0 0 0 0 Z" stroke-miterlimit="10" stroke-width="2"/></g></g></g></g></g><g transform="scale(1,1) matrix(1,0,0,1,598.1858483615355,438.88184079602) translate(2,9.953358208955251)"><text fill="#000000" stroke="none" font-family="Arial" font-size="36px" font-style="normal" font-weight="bold" text-decoration="none" x="27.66276041666667" y="33">NPC</text></g><g transform="translate(0,0) matrix(1,0,0,1,521.826822947786,610)"><g><g transform="translate(0,0) scale(2.0264365671641826,0.9499999999999954)"><g><path fill="#cfe2f3" stroke="none" d="M 0 0 L 100 0 Q 100 0 100 0 L 100 100 Q 100 100 100 100 L 0 100 Q 0 100 0 100 L 0 0 Q 0 0 0 0 Z"/><g transform="scale(0.49347708001509805,1.0526315789473735)"><path fill="none" stroke="none" d="M 0 0 L 202.64365671641826 0 Q 202.64365671641826 0 202.64365671641826 0 L 202.64365671641826 94.99999999999955 Q 202.64365671641826 94.99999999999955 202.64365671641826 94.99999999999955 L 0 94.99999999999955 Q 0 94.99999999999955 0 94.99999999999955 L 0 0 Q 0 0 0 0 Z"/><path fill="none" stroke="#000000" d="M 0 0 M 0 0 L 202.64365671641826 0 Q 202.64365671641826 0 202.64365671641826 0 L 202.64365671641826 94.99999999999955 Q 202.64365671641826 94.99999999999955 202.64365671641826 94.99999999999955 L 0 94.99999999999955 Q 0 94.99999999999955 0 94.99999999999955 L 0 0 Q 0 0 0 0 Z" stroke-miterlimit="10" stroke-width="2"/></g></g></g></g></g><g transform="scale(1,1) matrix(1,0,0,1,525.204217226393,610) translate(2,26.999999999999773)"><text fill="#000000" stroke="none" font-family="Arial" font-size="36px" font-style="normal" font-weight="bold" text-decoration="none" x="5.944434079602161" y="33">OGGETTO</text></g><g transform="translate(0,0) matrix(1,0,0,1,1192.1290666269438,280)"><g><g transform="translate(0,0) scale(2.0399999999999996,0.71)"><g><path fill="#cfe2f3" stroke="none" d="M 0 0 L 100 0 Q 100 0 100 0 L 100 100 Q 100 100 100 100 L 0 100 Q 0 100 0 100 L 0 0 Q 0 0 0 0 Z"/><g transform="scale(0.49019607843137264,1.4084507042253522)"><path fill="none" stroke="none" d="M 0 0 L 203.99999999999997 0 Q 203.99999999999997 0 203.99999999999997 0 L 203.99999999999997 71 Q 203.99999999999997 71 203.99999999999997 71 L 0 71 Q 0 71 0 71 L 0 0 Q 0 0 0 0 Z"/><path fill="none" stroke="#000000" d="M 0 0 M 0 0 L 203.99999999999997 0 Q 203.99999999999997 0 203.99999999999997 0 L 203.99999999999997 71 Q 203.99999999999997 71 203.99999999999997 71 L 0 71 Q 0 71 0 71 L 0 0 Q 0 0 0 0 Z" stroke-miterlimit="10" stroke-width="2"/></g></g></g></g></g><g transform="scale(1,1) matrix(1,0,0,1,1195.5290666269439,280) translate(2,15)"><text fill="#000000" stroke="none" font-family="Arial" font-size="36px" font-style="normal" font-weight="bold" text-decoration="none" x="21.33046874999998" y="33">ABILITA'</text></g><g transform="translate(0,0) matrix(1,0,0,1,162.4623999602771,151.40421428829117)"><g><g transform="translate(0,0) scale(1.8,0.6131901840490792)"><g><path fill="#cfe2f3" stroke="none" d="M 0 0 L 100 0 Q 100 0 100 0 L 100 100 Q 100 100 100 100 L 0 100 Q 0 100 0 100 L 0 0 Q 0 0 0 0 Z"/><g transform="scale(0.5555555555555556,1.6308154077038535)"><path fill="none" stroke="none" d="M 0 0 L 180 0 Q 180 0 180 0 L 180 61.31901840490792 Q 180 61.31901840490792 180 61.31901840490792 L 0 61.31901840490792 Q 0 61.31901840490792 0 61.31901840490792 L 0 0 Q 0 0 0 0 Z"/><path fill="none" stroke="#000000" d="M 0 0 M 0 0 L 180 0 Q 180 0 180 0 L 180 61.31901840490792 Q 180 61.31901840490792 180 61.31901840490792 L 0 61.31901840490792 Q 0 61.31901840490792 0 61.31901840490792 L 0 0 Q 0 0 0 0 Z" stroke-miterlimit="10" stroke-width="2"/></g></g></g></g></g><g transform="scale(1,1) matrix(1,0,0,1,165.4623999602771,151.40421428829117) translate(2,10.159509202453961)"><text fill="#000000" stroke="none" font-family="Arial" font-size="36px" font-style="normal" font-weight="bold" text-decoration="none" x="13" y="33">UTENTE</text></g><g transform="translate(0,0) matrix(1,0,0,1,153.33333333333334,479.65370953567435)"><g><g transform="translate(0,0) scale(2.1965145468664504,0.7291666666666664)"><g><path fill="#cfe2f3" stroke="none" d="M 0 0 L 100 0 Q 100 0 100 0 L 100 100 Q 100 100 100 100 L 0 100 Q 0 100 0 100 L 0 0 Q 0 0 0 0 Z"/><g transform="scale(0.45526673220835295,1.3714285714285719)"><path fill="none" stroke="none" d="M 0 0 L 219.65145468664505 0 Q 219.65145468664505 0 219.65145468664505 0 L 219.65145468664505 72.91666666666664 Q 219.65145468664505 72.91666666666664 219.65145468664505 72.91666666666664 L 0 72.91666666666664 Q 0 72.91666666666664 0 72.91666666666664 L 0 0 Q 0 0 0 0 Z"/><path fill="none" stroke="#000000" d="M 0 0 M 0 0 L 219.65145468664505 0 Q 219.65145468664505 0 219.65145468664505 0 L 219.65145468664505 72.91666666666664 Q 219.65145468664505 72.91666666666664 219.65145468664505 72.91666666666664 L 0 72.91666666666664 Q 0 72.91666666666664 0 72.91666666666664 L 0 0 Q 0 0 0 0 Z" stroke-miterlimit="10" stroke-width="2"/></g></g></g></g></g><g transform="scale(1,1) matrix(1,0,0,1,156.9941909114441,479.65370953567435) translate(2,15.958333333333321)"><text fill="#000000" stroke="none" font-family="Arial" font-size="36px" font-style="normal" font-weight="bold" text-decoration="none" x="2.167799452711762" y="33">PRODOTTO</text></g><g transform="translate(0,0) matrix(1,0,0,1,799.1290666269447,83.1373431226466)"><g><g transform="translate(0,0) scale(3.649999999999991,0.8705701636824199)"><g><path fill="#cfe2f3" stroke="none" d="M 0 0 L 100 0 Q 100 0 100 0 L 100 100 Q 100 100 100 100 L 0 100 Q 0 100 0 100 L 0 0 Q 0 0 0 0 Z"/><g transform="scale(0.2739726027397267,1.148672492714551)"><path fill="none" stroke="none" d="M 0 0 L 364.9999999999991 0 Q 364.9999999999991 0 364.9999999999991 0 L 364.9999999999991 87.05701636824199 Q 364.9999999999991 87.05701636824199 364.9999999999991 87.05701636824199 L 0 87.05701636824199 Q 0 87.05701636824199 0 87.05701636824199 L 0 0 Q 0 0 0 0 Z"/><path fill="none" stroke="#000000" d="M 0 0 M 0 0 L 364.9999999999991 0 Q 364.9999999999991 0 364.9999999999991 0 L 364.9999999999991 87.05701636824199 Q 364.9999999999991 87.05701636824199 364.9999999999991 87.05701636824199 L 0 87.05701636824199 Q 0 87.05701636824199 0 87.05701636824199 L 0 0 Q 0 0 0 0 Z" stroke-miterlimit="10" stroke-width="2"/></g></g></g></g></g><g transform="scale(1,1) matrix(1,0,0,1,805.212399960278,83.1373431226466) translate(2,23.028508184120994)"><text fill="#000000" stroke="none" font-family="Arial" font-size="36px" font-style="normal" font-weight="bold" text-decoration="none" x="44.41764322916626" y="33">TRANSAZIONE</text></g></g></svg>