<svg version="1.1" xmlns="http://www.w3.org/2000/svg" xmlns:xlink="http://www.w3.org/1999/xlink" width="1392.6436567164183" height="329.1455559625184"><defs/><g transform="translate(0,0)"><g><rect fill="#FFFFFF" stroke="none" x="0" y="0" width="1392.6436567164183" height="329.1455559625184"/></g><g transform="translate(0,0) matrix(1,0,0,1,200,200)"><g><g transform="translate(0,0) scale(2.880513841608322,0.8645607545096573)"><g><path fill="#cfe2f3" stroke="none" d="M 0 0 L 100 0 Q 100 0 100 0 L 100 100 Q 100 100 100 100 L 0 100 Q 0 100 0 100 L 0 0 Q 0 0 0 0 Z"/><g transform="scale(0.34716028284788747,1.1566567124217408)"><path fill="none" stroke="none" d="M 0 0 L 288.0513841608322 0 Q 288.0513841608322 0 288.0513841608322 0 L 288.0513841608322 86.45607545096573 Q 288.0513841608322 86.45607545096573 288.0513841608322 86.45607545096573 L 0 86.45607545096573 Q 0 86.45607545096573 0 86.45607545096573 L 0 0 Q 0 0 0 0 Z"/><path fill="none" stroke="#000000" d="M 0 0 M 0 0 L 288.0513841608322 0 Q 288.0513841608322 0 288.0513841608322 0 L 288.0513841608322 86.45607545096573 Q 288.0513841608322 86.45607545096573 288.0513841608322 86.45607545096573 L 0 86.45607545096573 Q 0 86.45607545096573 0 86.45607545096573 L 0 0 Q 0 0 0 0 Z" stroke-miterlimit="10" stroke-width="2"/></g></g></g></g></g><g transform="scale(1,1) matrix(1,0,0,1,204.80085640268052,200) translate(2,22.728037725482864)"><text fill="#000000" stroke="none" font-family="Arial" font-size="36px" font-style="normal" font-weight="bold" text-decoration="none" x="1.2053044277355411" y="33">PERSONAGGIO</text></g><g transform="translate(0,0) matrix(1,0,0,1,1170,191.45607545096618)"><g><g transform="translate(0,0) scale(2.0264365671641826,0.9499999999999954)"><g><path fill="#cfe2f3" stroke="none" d="M 0 0 L 100 0 Q 100 0 100 0 L 100 100 Q 100 100 100 100 L 0 100 Q 0 100 0 100 L 0 0 Q 0 0 0 0 Z"/><g transform="scale(0.49347708001509805,1.0526315789473735)"><path fill="none" stroke="none" d="M 0 0 L 202.64365671641826 0 Q 202.64365671641826 0 202.64365671641826 0 L 202.64365671641826 94.99999999999955 Q 202.64365671641826 94.99999999999955 202.64365671641826 94.99999999999955 L 0 94.99999999999955 Q 0 94.99999999999955 0 94.99999999999955 L 0 0 Q 0 0 0 0 Z"/><path fill="none" stroke="#000000" d="M 0 0 M 0 0 L 202.64365671641826 0 Q 202.64365671641826 0 202.64365671641826 0 L 202.64365671641826 94.99999999999955 Q 202.64365671641826 94.99999999999955 202.64365671641826 94.99999999999955 L 0 94.99999999999955 Q 0 94.99999999999955 0 94.99999999999955 L 0 0 Q 0 0 0 0 Z" stroke-miterlimit="10" stroke-width="2"/></g></g></g></g></g><g transform="scale(1,1) matrix(1,0,0,1,1173.377394278607,191.45607545096618) translate(2,26.999999999999773)"><text fill="#000000" stroke="none" font-family="Arial" font-size="36px" font-style="normal" font-weight="bold" text-decoration="none" x="5.944434079602161" y="33">OGGETTO</text></g><g transform="translate(0,0) matrix(1,0,0,1,670,168.7665949394135)"><g><g transform="translate(0,0) scale(2.8,1.4037896102310492)"><g><g transform="scale(0.35714285714285715,0.7123574592031711)"><path fill="#fff2cc" stroke="none" d="M 140 0 L 280 70.18948051155246 L 140 140.37896102310492 L 0 70.18948051155246 L 140 0 Z"/><path fill="none" stroke="#000000" d="M 140 0 M 140 0 L 280 70.18948051155246 L 140 140.37896102310492 L 0 70.18948051155246 L 140 0 Z" stroke-miterlimit="10" stroke-width="2"/></g></g></g></g></g><g transform="scale(1,1) matrix(1,0,0,1,674.6666666666666,168.7665949394135) translate(2,56.68948051155246)"><text fill="#000000" stroke="none" font-family="Arial" font-size="24px" font-style="normal" font-weight="bold" text-decoration="none" x="60.472005208333286" y="21">PROPRIETA'</text></g><g transform="matrix(1,0,0,1,483.50124047822754,234.45607545096595)"><g transform="translate(0,0)"><g transform="translate(-487.8787878787879,-242.4242424242424) translate(4.377547400560331,7.968166973276453) matrix(1,0,0,1,0,0)"><g><path fill="none" stroke="#000000" d="M 488.00124047822754 238.95607545096598 L 538.6674936521517 238.95607545096598 Q 548.6674936521517 238.95607545096598 558.6674936521517 238.95607545096598 L 599.3337468260759 238.95607545096595 Q 609.3337468260759 238.95607545096595 619.3337468260759 238.95607545096595 L 670 238.95607545096595" stroke-miterlimit="10" stroke-width="2"/></g></g></g></g><g transform="matrix(1,0,0,1,945.5,234.45607545096595)"><g transform="translate(0,0)"><g transform="translate(-948.4848484848484,-239.39393939393938) translate(2.984848484848385,4.937863942973422) matrix(1,0,0,1,0,0)"><g><path fill="none" stroke="#000000" d="M 950 238.95607545096595 L 1013.3333333333334 238.95607545096595 Q 1023.3333333333334 238.95607545096595 1033.3333333333335 238.95607545096595 L 1086.6666666666667 238.95607545096595 Q 1096.6666666666667 238.95607545096595 1106.6666666666667 238.95607545096595 L 1170 238.95607545096595" stroke-miterlimit="10" stroke-width="2"/></g></g></g></g></g></svg>