<svg version="1.1" xmlns="http://www.w3.org/2000/svg" xmlns:xlink="http://www.w3.org/1999/xlink" width="2091.4925373134324" height="460"><defs/><g transform="translate(0,0)"><g><rect fill="#FFFFFF" stroke="none" x="0" y="0" width="2091.4925373134324" height="460"/></g><g transform="translate(0,0) matrix(1,0,0,1,140,250)"><g><g transform="translate(0,0) scale(2.880513841608322,0.8645607545096573)"><g><path fill="#cfe2f3" stroke="none" d="M 0 0 L 100 0 Q 100 0 100 0 L 100 100 Q 100 100 100 100 L 0 100 Q 0 100 0 100 L 0 0 Q 0 0 0 0 Z"/><g transform="scale(0.34716028284788747,1.1566567124217408)"><path fill="none" stroke="none" d="M 0 0 L 288.0513841608322 0 Q 288.0513841608322 0 288.0513841608322 0 L 288.0513841608322 86.45607545096573 Q 288.0513841608322 86.45607545096573 288.0513841608322 86.45607545096573 L 0 86.45607545096573 Q 0 86.45607545096573 0 86.45607545096573 L 0 0 Q 0 0 0 0 Z"/><path fill="none" stroke="#000000" d="M 0 0 M 0 0 L 288.0513841608322 0 Q 288.0513841608322 0 288.0513841608322 0 L 288.0513841608322 86.45607545096573 Q 288.0513841608322 86.45607545096573 288.0513841608322 86.45607545096573 L 0 86.45607545096573 Q 0 86.45607545096573 0 86.45607545096573 L 0 0 Q 0 0 0 0 Z" stroke-miterlimit="10" stroke-width="2"/></g></g></g></g></g><g transform="scale(1,1) matrix(1,0,0,1,144.80085640268052,250) translate(2,22.728037725482864)"><text fill="#000000" stroke="none" font-family="Arial" font-size="36px" font-style="normal" font-weight="bold" text-decoration="none" x="1.2053044277355411" y="33">PERSONAGGIO</text></g><g transform="translate(0,0) matrix(1,0,0,1,1000,140)"><g><g transform="translate(0,0) scale(3.5,1.115)"><g><g transform="scale(0.2857142857142857,0.8968609865470852)"><path fill="#fff2cc" stroke="none" d="M 175 0 L 350 55.75 L 175 111.5 L 0 55.75 L 175 0 Z"/><path fill="none" stroke="#000000" d="M 175 0 M 175 0 L 350 55.75 L 175 111.5 L 0 55.75 L 175 0 Z" stroke-miterlimit="10" stroke-width="2"/></g></g></g></g></g><g transform="scale(1,1) matrix(1,0,0,1,1005.8333333333334,140) translate(2,42.25)"><text fill="#000000" stroke="none" font-family="Arial" font-size="24px" font-style="normal" font-weight="bold" text-decoration="none" x="55.832682291666515" y="21">INTRAPRENDENZA</text></g><g transform="translate(0,0) matrix(1,0,0,1,1000,334.1666666666665)"><g><g transform="translate(0,0) scale(3.5,1.058333333333335)"><g><g transform="scale(0.2857142857142857,0.9448818897637781)"><path fill="#fff2cc" stroke="none" d="M 175 0 L 350 52.91666666666674 L 175 105.83333333333348 L 0 52.91666666666674 L 175 0 Z"/><path fill="none" stroke="#000000" d="M 175 0 M 175 0 L 350 52.91666666666674 L 175 105.83333333333348 L 0 52.91666666666674 L 175 0 Z" stroke-miterlimit="10" stroke-width="2"/></g></g></g></g></g><g transform="scale(1,1) matrix(1,0,0,1,1005.8333333333334,334.1666666666665) translate(2,39.41666666666674)"><text fill="#000000" stroke="none" font-family="Arial" font-size="24px" font-style="normal" font-weight="bold" text-decoration="none" x="53.17252604166663" y="21">&#160;COMPLETAMENTO</text></g><g transform="translate(0,0) matrix(1,0,0,1,1830,256.8789610231047)"><g><g transform="translate(0,0) scale(2.414925373134324,0.7957711442786103)"><g><path fill="#cfe2f3" stroke="none" d="M 0 0 L 100 0 Q 100 0 100 0 L 100 100 Q 100 100 100 100 L 0 100 Q 0 100 0 100 L 0 0 Q 0 0 0 0 Z"/><g transform="scale(0.41409147095179305,1.2566427008440084)"><path fill="none" stroke="none" d="M 0 0 L 241.49253731343242 0 Q 241.49253731343242 0 241.49253731343242 0 L 241.49253731343242 79.57711442786103 Q 241.49253731343242 79.57711442786103 241.49253731343242 79.57711442786103 L 0 79.57711442786103 Q 0 79.57711442786103 0 79.57711442786103 L 0 0 Q 0 0 0 0 Z"/><path fill="none" stroke="#000000" d="M 0 0 M 0 0 L 241.49253731343242 0 Q 241.49253731343242 0 241.49253731343242 0 L 241.49253731343242 79.57711442786103 Q 241.49253731343242 79.57711442786103 241.49253731343242 79.57711442786103 L 0 79.57711442786103 Q 0 79.57711442786103 0 79.57711442786103 L 0 0 Q 0 0 0 0 Z" stroke-miterlimit="10" stroke-width="2"/></g></g></g></g></g><g transform="scale(1,1) matrix(1,0,0,1,1834.0248756218905,256.8789610231047) translate(2,19.288557213930517)"><text fill="#000000" stroke="none" font-family="Arial" font-size="36px" font-style="normal" font-weight="bold" text-decoration="none" x="26.707721159825667" y="33">MISSIONE</text></g><g transform="matrix(1,0,0,1,1345.5,292.1675182370352)"><g transform="translate(0,0)"><g transform="translate(-1460.7699053706992,-550.6806788700101) translate(115.26990537069923,258.51316063297486) matrix(1,0,0,1,0,0)"><g><path fill="none" stroke="#000000" d="M 1830 296.6675182370352 L 1600 296.6675182370352 Q 1590 296.6675182370352 1590 306.6675182370352 L 1590 377.08333333333326 Q 1590 387.08333333333326 1580 387.08333333333326 L 1350 387.08333333333326" stroke-miterlimit="10" stroke-width="2"/></g></g></g></g><g transform="matrix(1,0,0,1,1345.5,191.25)"><g transform="translate(0,0)"><g transform="translate(-1343.7699053706992,-472.68067887001007) translate(-1.7300946293007655,281.43067887001007) matrix(1,0,0,1,0,0)"><g><path fill="none" stroke="#000000" d="M 1350 195.75 L 1580 195.75 Q 1590 195.75 1590 205.75 L 1590 286.6675182370352 Q 1590 296.6675182370352 1600 296.6675182370352 L 1830 296.6675182370352" stroke-miterlimit="10" stroke-width="2"/></g></g></g></g><g transform="matrix(1,0,0,1,423.5513841608322,191.25)"><g transform="translate(0,0)"><g transform="translate(-966.5460247736851,-519.6806788700101) translate(542.9946406128529,328.43067887001007) matrix(1,0,0,1,0,0)"><g><path fill="none" stroke="#000000" d="M 1000 195.75 L 722.8511394062918 195.75 Q 712.8511394062918 195.75 712.8511394062918 205.75 L 712.8511394062918 283.22803772548286 Q 712.8511394062918 293.22803772548286 702.8511394062918 293.22803772548286 L 428.0513841608322 293.22803772548286" stroke-miterlimit="10" stroke-width="2"/></g></g></g></g><g transform="matrix(1,0,0,1,423.5513841608322,288.72803772548286)"><g transform="translate(0,0)"><g transform="translate(-965.5460247736851,-680.6806788700101) translate(541.9946406128529,391.9526411445272) matrix(1,0,0,1,0,0)"><g><path fill="none" stroke="#000000" d="M 1000 387.08333333333326 L 724.0256920804161 387.08333333333326 Q 714.0256920804161 387.08333333333326 714.0256920804161 377.08333333333326 L 714.0256920804161 303.22803772548286 Q 714.0256920804161 293.22803772548286 704.0256920804161 293.22803772548286 L 428.0513841608322 293.22803772548286" stroke-miterlimit="10" stroke-width="2"/></g></g></g></g></g></svg>