<svg version="1.1" xmlns="http://www.w3.org/2000/svg" xmlns:xlink="http://www.w3.org/1999/xlink" width="2764.5" height="1388.427153736201"><defs/><g transform="translate(0,0)"><g><rect fill="#FFFFFF" stroke="none" x="0" y="0" width="2764.5" height="1388.427153736201"/></g><g transform="translate(0,0) matrix(1,0,0,1,1060,781.2424110665885)"><g><g transform="translate(0,0) scale(2.880513841608322,0.8645607545096573)"><g><path fill="#cfe2f3" stroke="none" d="M 0 0 L 100 0 Q 100 0 100 0 L 100 100 Q 100 100 100 100 L 0 100 Q 0 100 0 100 L 0 0 Q 0 0 0 0 Z"/><g transform="scale(0.34716028284788747,1.1566567124217408)"><path fill="none" stroke="none" d="M 0 0 L 288.0513841608322 0 Q 288.0513841608322 0 288.0513841608322 0 L 288.0513841608322 86.45607545096573 Q 288.0513841608322 86.45607545096573 288.0513841608322 86.45607545096573 L 0 86.45607545096573 Q 0 86.45607545096573 0 86.45607545096573 L 0 0 Q 0 0 0 0 Z"/><path fill="none" stroke="#000000" d="M 0 0 M 0 0 L 288.0513841608322 0 Q 288.0513841608322 0 288.0513841608322 0 L 288.0513841608322 86.45607545096573 Q 288.0513841608322 86.45607545096573 288.0513841608322 86.45607545096573 L 0 86.45607545096573 Q 0 86.45607545096573 0 86.45607545096573 L 0 0 Q 0 0 0 0 Z" stroke-miterlimit="10" stroke-width="2"/></g></g></g></g></g><g transform="scale(1,1) matrix(1,0,0,1,1064.8008564026804,781.2424110665885) translate(2,22.728037725482864)"><text fill="#000000" stroke="none" font-family="Arial" font-size="36px" font-style="normal" font-weight="bold" text-decoration="none" x="1.2053044277355411" y="33">PERSONAGGIO</text></g><g transform="translate(0,0) matrix(1,0,0,1,250,780)"><g><g transform="translate(0,0) scale(2.2,0.9)"><g><path fill="#cfe2f3" stroke="none" d="M 0 0 L 100 0 Q 100 0 100 0 L 100 100 Q 100 100 100 100 L 0 100 Q 0 100 0 100 L 0 0 Q 0 0 0 0 Z"/><g transform="scale(0.45454545454545453,1.1111111111111112)"><path fill="none" stroke="none" d="M 0 0 L 220.00000000000003 0 Q 220.00000000000003 0 220.00000000000003 0 L 220.00000000000003 90 Q 220.00000000000003 90 220.00000000000003 90 L 0 90 Q 0 90 0 90 L 0 0 Q 0 0 0 0 Z"/><path fill="none" stroke="#000000" d="M 0 0 M 0 0 L 220.00000000000003 0 Q 220.00000000000003 0 220.00000000000003 0 L 220.00000000000003 90 Q 220.00000000000003 90 220.00000000000003 90 L 0 90 Q 0 90 0 90 L 0 0 Q 0 0 0 0 Z" stroke-miterlimit="10" stroke-width="2"/></g></g></g></g></g><g transform="scale(1,1) matrix(1,0,0,1,253.66666666666666,780) translate(2,24.5)"><text fill="#000000" stroke="none" font-family="Arial" font-size="36px" font-style="normal" font-weight="bold" text-decoration="none" x="32.33333333333334" y="33">UTENTE</text></g><g transform="translate(0,0) matrix(1,0,0,1,660,781.2424110665885)"><g><g transform="translate(0,0) scale(1.970895522388062,0.8875758893341152)"><g><g transform="scale(0.5073835668307454,1.126664223326558)"><path fill="#fff2cc" stroke="none" d="M 98.5447761194031 0 L 197.0895522388062 44.37879446670576 L 98.5447761194031 88.75758893341153 L 0 44.37879446670576 L 98.5447761194031 0 Z"/><path fill="none" stroke="#000000" d="M 98.5447761194031 0 M 98.5447761194031 0 L 197.0895522388062 44.37879446670576 L 98.5447761194031 88.75758893341153 L 0 44.37879446670576 L 98.5447761194031 0 Z" stroke-miterlimit="10" stroke-width="2"/></g></g></g></g></g><g transform="scale(1,1) matrix(1,0,0,1,663.2848258706467,781.2424110665885) translate(2,30.878794466705763)"><text fill="#000000" stroke="none" font-family="Arial" font-size="13px" font-style="normal" font-weight="bold" text-decoration="none" x="24.568543998756297" y="21">&#160;</text><text fill="#000000" stroke="none" font-family="Arial" font-size="24px" font-style="normal" font-weight="bold" text-decoration="none" x="28.568543998756297" y="21">POSSESSO</text></g><g transform="matrix(1,0,0,1,465.5,820.5)"><g transform="translate(0,0)"><g transform="translate(-466.66666666666663,-823.7978415251143) translate(1.1666666666666288,3.297841525114336) matrix(1,0,0,1,0,0)"><g><path fill="none" stroke="#000000" d="M 470 825 L 523.3336718379678 825 Q 533.3336718379678 825 543.3336718379678 825 L 586.6673436759356 825 Q 596.6673436759356 825 606.6673436759356 825 L 660.0010155139034 825" stroke-miterlimit="10" stroke-width="2"/></g></g></g></g><g transform="matrix(1,0,0,1,852.5862891480084,819.9704487920714)"><g transform="translate(0,0)"><g transform="translate(-854.5454545454545,-820.7675384948113) translate(1.9591653974460996,0.7970897027399815) matrix(1,0,0,1,0,0)"><g><path fill="none" stroke="#000000" d="M 857.0862891480084 824.4704487920714 L 914.7241927653389 824.4704487920714 Q 924.7241927653389 824.4704487920714 934.7241927653389 824.4704487920714 L 982.3620963826695 824.4704487920714 Q 992.3620963826695 824.4704487920714 1002.3620963826695 824.4704487920714 L 1060 824.4704487920714" stroke-miterlimit="10" stroke-width="2"/></g></g></g></g><g transform="translate(0,0) matrix(1,0,0,1,250,1204.9252880645595)"><g><g transform="translate(0,0) scale(2.1965145468664504,0.7291666666666664)"><g><path fill="#cfe2f3" stroke="none" d="M 0 0 L 100 0 Q 100 0 100 0 L 100 100 Q 100 100 100 100 L 0 100 Q 0 100 0 100 L 0 0 Q 0 0 0 0 Z"/><g transform="scale(0.45526673220835295,1.3714285714285719)"><path fill="none" stroke="none" d="M 0 0 L 219.65145468664505 0 Q 219.65145468664505 0 219.65145468664505 0 L 219.65145468664505 72.91666666666664 Q 219.65145468664505 72.91666666666664 219.65145468664505 72.91666666666664 L 0 72.91666666666664 Q 0 72.91666666666664 0 72.91666666666664 L 0 0 Q 0 0 0 0 Z"/><path fill="none" stroke="#000000" d="M 0 0 M 0 0 L 219.65145468664505 0 Q 219.65145468664505 0 219.65145468664505 0 L 219.65145468664505 72.91666666666664 Q 219.65145468664505 72.91666666666664 219.65145468664505 72.91666666666664 L 0 72.91666666666664 Q 0 72.91666666666664 0 72.91666666666664 L 0 0 Q 0 0 0 0 Z" stroke-miterlimit="10" stroke-width="2"/></g></g></g></g></g><g transform="scale(1,1) matrix(1,0,0,1,253.66085757811075,1204.9252880645595) translate(2,15.958333333333321)"><text fill="#000000" stroke="none" font-family="Arial" font-size="36px" font-style="normal" font-weight="bold" text-decoration="none" x="2.167799452711762" y="33">PRODOTTO</text></g><g transform="translate(0,0) matrix(1,0,0,1,259.1290666269437,1039.041931310431)"><g><g transform="translate(0,0) scale(1.9819848426388966,0.9019556428676515)"><g><g transform="scale(0.5045447263201865,1.108701972106554)"><path fill="#fff2cc" stroke="none" d="M 99.09924213194483 0 L 198.19848426388967 45.097782143382574 L 99.09924213194483 90.19556428676515 L 0 45.097782143382574 L 99.09924213194483 0 Z"/><path fill="none" stroke="#000000" d="M 99.09924213194483 0 M 99.09924213194483 0 L 198.19848426388967 45.097782143382574 L 99.09924213194483 90.19556428676515 L 0 45.097782143382574 L 99.09924213194483 0 Z" stroke-miterlimit="10" stroke-width="2"/></g></g></g></g></g><g transform="scale(1,1) matrix(1,0,0,1,262.4323746980085,1039.041931310431) translate(2,31.597782143382574)"><text fill="#000000" stroke="none" font-family="Arial" font-size="24px" font-style="normal" font-weight="bold" text-decoration="none" x="27.133824685879972" y="21">CARRELLO</text></g><g transform="matrix(1,0,0,1,355.5,865.5)"><g transform="translate(0,0)"><g transform="translate(-200.52982449499888,-1013.072686624769) translate(-154.97017550500112,147.57268662476895) matrix(1,0,0,1,0,0)"><g><path fill="none" stroke="#000000" d="M 360 870 L 360 926.350405136091 L 360.00000000000006 982.700810272182 L 360.00000000000006 1039.051215408273" stroke-miterlimit="10" stroke-width="2"/></g></g></g></g><g transform="matrix(1,0,0,1,353.72830875888855,1124.7374955971961)"><g transform="translate(0,0)"><g transform="translate(-335.94875903532073,-1137.9893532914357) translate(-17.77954972356781,13.251857694239561) matrix(1,0,0,1,0,0)"><g><path fill="none" stroke="#000000" d="M 358.22830875888855 1129.2374955971961 L 358.22830875888855 1154.4723781447874 L 358.22830875888855 1179.707260692379 L 358.22830875888855 1204.9421432399702" stroke-miterlimit="10" stroke-width="2"/></g></g></g></g><g transform="translate(0,0) matrix(1,0,0,1,527.0395143881376,1039.041931310431)"><g><g transform="translate(0,0) scale(2.6,1.2000000000000002)"><g><g transform="scale(0.3846153846153846,0.8333333333333333)"><path fill="#fff2cc" stroke="none" d="M 130 0 L 260 60.00000000000001 L 130 120.00000000000001 L 0 60.00000000000001 L 130 0 Z"/><path fill="none" stroke="#000000" d="M 130 0 M 130 0 L 260 60.00000000000001 L 130 120.00000000000001 L 0 60.00000000000001 L 130 0 Z" stroke-miterlimit="10" stroke-width="2"/></g></g></g></g></g><g transform="scale(1,1) matrix(1,0,0,1,531.372847721471,1039.041931310431) translate(2,33.00000000000001)"><text fill="#000000" stroke="none" font-family="Arial" font-size="24px" font-style="normal" font-weight="bold" text-decoration="none" x="47.471354166666686" y="21">&#160;PROPRIETA'</text><text fill="#000000" stroke="none" font-family="Arial" font-size="24px" font-style="normal" font-weight="bold" text-decoration="none" x="90.32682291666669" y="48">USER</text></g><g transform="matrix(1,0,0,1,355.5,865.5)"><g transform="translate(0,0)"><g transform="translate(-212.52982449499888,-1014.4060199581022) translate(-142.97017550500112,148.9060199581022) matrix(1,0,0,1,0,0)"><g><path fill="none" stroke="#000000" d="M 360 870 L 360 954.5209656552155 L 657.0395143881376 954.5209656552155 L 657.0395143881376 1039.041931310431" stroke-miterlimit="10" stroke-width="2"/></g></g></g></g><g transform="matrix(1,0,0,1,465.151454686645,1154.541931310431)"><g transform="translate(0,0)"><g transform="translate(-686.757096731656,-1151.6004644025465) translate(221.605642045011,-2.9414669078844327) matrix(1,0,0,1,0,0)"><g><path fill="none" stroke="#000000" d="M 657.0395143881376 1159.041931310431 L 657.0395143881376 1241.3836213978927 L 469.651454686645 1241.3836213978927" stroke-miterlimit="10" stroke-width="2"/></g></g></g></g><g transform="translate(0,0) matrix(1,0,0,1,408.5447761194032,382.3868134210139)"><g><g transform="translate(0,0) scale(3.5,1.115)"><g><g transform="scale(0.2857142857142857,0.8968609865470852)"><path fill="#fff2cc" stroke="none" d="M 175 0 L 350 55.75 L 175 111.5 L 0 55.75 L 175 0 Z"/><path fill="none" stroke="#000000" d="M 175 0 M 175 0 L 350 55.75 L 175 111.5 L 0 55.75 L 175 0 Z" stroke-miterlimit="10" stroke-width="2"/></g></g></g></g></g><g transform="scale(1,1) matrix(1,0,0,1,414.3781094527365,382.3868134210139) translate(2,42.25)"><text fill="#000000" stroke="none" font-family="Arial" font-size="24px" font-style="normal" font-weight="bold" text-decoration="none" x="55.832682291666515" y="21">INTRAPRENDENZA</text></g><g transform="translate(0,0) matrix(1,0,0,1,680,150)"><g><g transform="translate(0,0) scale(2.414925373134324,0.7957711442786103)"><g><path fill="#cfe2f3" stroke="none" d="M 0 0 L 100 0 Q 100 0 100 0 L 100 100 Q 100 100 100 100 L 0 100 Q 0 100 0 100 L 0 0 Q 0 0 0 0 Z"/><g transform="scale(0.41409147095179305,1.2566427008440084)"><path fill="none" stroke="none" d="M 0 0 L 241.49253731343242 0 Q 241.49253731343242 0 241.49253731343242 0 L 241.49253731343242 79.57711442786103 Q 241.49253731343242 79.57711442786103 241.49253731343242 79.57711442786103 L 0 79.57711442786103 Q 0 79.57711442786103 0 79.57711442786103 L 0 0 Q 0 0 0 0 Z"/><path fill="none" stroke="#000000" d="M 0 0 M 0 0 L 241.49253731343242 0 Q 241.49253731343242 0 241.49253731343242 0 L 241.49253731343242 79.57711442786103 Q 241.49253731343242 79.57711442786103 241.49253731343242 79.57711442786103 L 0 79.57711442786103 Q 0 79.57711442786103 0 79.57711442786103 L 0 0 Q 0 0 0 0 Z" stroke-miterlimit="10" stroke-width="2"/></g></g></g></g></g><g transform="scale(1,1) matrix(1,0,0,1,684.0248756218905,150) translate(2,19.288557213930517)"><text fill="#000000" stroke="none" font-family="Arial" font-size="36px" font-style="normal" font-weight="bold" text-decoration="none" x="26.707721159825667" y="33">MISSIONE</text></g><g transform="translate(0,0) matrix(1,0,0,1,2324.999999999999,1263.0204373182905)"><g><g transform="translate(0,0) scale(1.4,0.609067164179105)"><g><path fill="#cfe2f3" stroke="none" d="M 0 0 L 100 0 Q 100 0 100 0 L 100 100 Q 100 100 100 100 L 0 100 Q 0 100 0 100 L 0 0 Q 0 0 0 0 Z"/><g transform="scale(0.7142857142857143,1.641855051154811)"><path fill="none" stroke="none" d="M 0 0 L 140 0 Q 140 0 140 0 L 140 60.9067164179105 Q 140 60.9067164179105 140 60.9067164179105 L 0 60.9067164179105 Q 0 60.9067164179105 0 60.9067164179105 L 0 0 Q 0 0 0 0 Z"/><path fill="none" stroke="#000000" d="M 0 0 M 0 0 L 140 0 Q 140 0 140 0 L 140 60.9067164179105 Q 140 60.9067164179105 140 60.9067164179105 L 0 60.9067164179105 Q 0 60.9067164179105 0 60.9067164179105 L 0 0 Q 0 0 0 0 Z" stroke-miterlimit="10" stroke-width="2"/></g></g></g></g></g><g transform="scale(1,1) matrix(1,0,0,1,2327.3333333333326,1263.0204373182905) translate(2,9.953358208955251)"><text fill="#000000" stroke="none" font-family="Arial" font-size="36px" font-style="normal" font-weight="bold" text-decoration="none" x="27.66276041666667" y="33">NPC</text></g><g transform="translate(0,0) matrix(1,0,0,1,1102.703863722207,1241.3836213978932)"><g><g transform="translate(0,0) scale(2.0264365671641826,0.9499999999999954)"><g><path fill="#cfe2f3" stroke="none" d="M 0 0 L 100 0 Q 100 0 100 0 L 100 100 Q 100 100 100 100 L 0 100 Q 0 100 0 100 L 0 0 Q 0 0 0 0 Z"/><g transform="scale(0.49347708001509805,1.0526315789473735)"><path fill="none" stroke="none" d="M 0 0 L 202.64365671641826 0 Q 202.64365671641826 0 202.64365671641826 0 L 202.64365671641826 94.99999999999955 Q 202.64365671641826 94.99999999999955 202.64365671641826 94.99999999999955 L 0 94.99999999999955 Q 0 94.99999999999955 0 94.99999999999955 L 0 0 Q 0 0 0 0 Z"/><path fill="none" stroke="#000000" d="M 0 0 M 0 0 L 202.64365671641826 0 Q 202.64365671641826 0 202.64365671641826 0 L 202.64365671641826 94.99999999999955 Q 202.64365671641826 94.99999999999955 202.64365671641826 94.99999999999955 L 0 94.99999999999955 Q 0 94.99999999999955 0 94.99999999999955 L 0 0 Q 0 0 0 0 Z" stroke-miterlimit="10" stroke-width="2"/></g></g></g></g></g><g transform="scale(1,1) matrix(1,0,0,1,1106.081258000814,1241.3836213978932) translate(2,26.999999999999773)"><text fill="#000000" stroke="none" font-family="Arial" font-size="36px" font-style="normal" font-weight="bold" text-decoration="none" x="5.944434079602161" y="33">OGGETTO</text></g><g transform="translate(0,0) matrix(1,0,0,1,1049.025692080416,999.0033740965004)"><g><g transform="translate(0,0) scale(3.1000000000000005,0.8007711442786081)"><g><g transform="scale(0.32258064516129026,1.2487962473983394)"><path fill="#fff2cc" stroke="none" d="M 155.00000000000003 0 L 310.00000000000006 40.0385572139304 L 155.00000000000003 80.0771144278608 L 0 40.0385572139304 L 155.00000000000003 0 Z"/><path fill="none" stroke="#000000" d="M 155.00000000000003 0 M 155.00000000000003 0 L 310.00000000000006 40.0385572139304 L 155.00000000000003 80.0771144278608 L 0 40.0385572139304 L 155.00000000000003 0 Z" stroke-miterlimit="10" stroke-width="2"/></g></g></g></g></g><g transform="scale(1,1) matrix(1,0,0,1,1054.1923587470828,999.0033740965004) translate(2,26.538557213930403)"><text fill="#000000" stroke="none" font-family="Arial" font-size="24px" font-style="normal" font-weight="bold" text-decoration="none" x="35.626302083333314" y="21">&#160;PROPRIETA' PERS</text></g><g transform="translate(0,0) matrix(1,0,0,1,1730,1241.383621397893)"><g><g transform="translate(0,0) scale(2.859051334237902,1.0418034825870608)"><g><g transform="scale(0.3497663676145767,0.9598739270066057)"><path fill="#fff2cc" stroke="none" d="M 142.9525667118951 0 L 285.9051334237902 52.09017412935304 L 142.9525667118951 104.18034825870608 L 0 52.09017412935304 L 142.9525667118951 0 Z"/><path fill="none" stroke="#000000" d="M 142.9525667118951 0 M 142.9525667118951 0 L 285.9051334237902 52.09017412935304 L 142.9525667118951 104.18034825870608 L 0 52.09017412935304 L 142.9525667118951 0 Z" stroke-miterlimit="10" stroke-width="2"/></g></g></g></g></g><g transform="scale(1,1) matrix(1,0,0,1,1734.7650855570632,1241.383621397893) translate(2,38.590174129353045)"><text fill="#000000" stroke="none" font-family="Arial" font-size="24px" font-style="normal" font-weight="bold" text-decoration="none" x="37.509746779831886" y="21">PROPRIETA NPC</text></g><g transform="translate(0,0) matrix(1,0,0,1,1730,300)"><g><g transform="translate(0,0) scale(2.7700746268656666,1.0143117097168928)"><g><g transform="scale(0.36100110455561907,0.9858902252830273)"><path fill="#fff2cc" stroke="none" d="M 138.50373134328333 0 L 277.00746268656667 50.71558548584464 L 138.50373134328333 101.43117097168928 L 0 50.71558548584464 L 138.50373134328333 0 Z"/><path fill="none" stroke="#000000" d="M 138.50373134328333 0 M 138.50373134328333 0 L 277.00746268656667 50.71558548584464 L 138.50373134328333 101.43117097168928 L 0 50.71558548584464 L 138.50373134328333 0 Z" stroke-miterlimit="10" stroke-width="2"/></g></g></g></g></g><g transform="scale(1,1) matrix(1,0,0,1,1734.6167910447762,300) translate(2,37.21558548584464)"><text fill="#000000" stroke="none" font-family="Arial" font-size="24px" font-style="normal" font-weight="bold" text-decoration="none" x="26.547096548507227" y="21">APPRENDIMENTO</text></g><g transform="translate(0,0) matrix(1,0,0,1,2100,311.3868134210139)"><g><g transform="translate(0,0) scale(2.0399999999999996,0.71)"><g><path fill="#cfe2f3" stroke="none" d="M 0 0 L 100 0 Q 100 0 100 0 L 100 100 Q 100 100 100 100 L 0 100 Q 0 100 0 100 L 0 0 Q 0 0 0 0 Z"/><g transform="scale(0.49019607843137264,1.4084507042253522)"><path fill="none" stroke="none" d="M 0 0 L 203.99999999999997 0 Q 203.99999999999997 0 203.99999999999997 0 L 203.99999999999997 71 Q 203.99999999999997 71 203.99999999999997 71 L 0 71 Q 0 71 0 71 L 0 0 Q 0 0 0 0 Z"/><path fill="none" stroke="#000000" d="M 0 0 M 0 0 L 203.99999999999997 0 Q 203.99999999999997 0 203.99999999999997 0 L 203.99999999999997 71 Q 203.99999999999997 71 203.99999999999997 71 L 0 71 Q 0 71 0 71 L 0 0 Q 0 0 0 0 Z" stroke-miterlimit="10" stroke-width="2"/></g></g></g></g></g><g transform="scale(1,1) matrix(1,0,0,1,2103.4,311.3868134210139) translate(2,15)"><text fill="#000000" stroke="none" font-family="Arial" font-size="36px" font-style="normal" font-weight="bold" text-decoration="none" x="21.33046874999998" y="33">ABILITA'</text></g><g transform="translate(0,0) matrix(1,0,0,1,1470,660)"><g><g transform="translate(0,0) scale(2.6,1.4)"><g><g transform="scale(0.3846153846153846,0.7142857142857143)"><path fill="#fff2cc" stroke="none" d="M 130 0 L 260 70 L 130 140 L 0 70 L 130 0 Z"/><path fill="none" stroke="#000000" d="M 130 0 M 130 0 L 260 70 L 130 140 L 0 70 L 130 0 Z" stroke-miterlimit="10" stroke-width="2"/></g></g></g></g></g><g transform="scale(1,1) matrix(1,0,0,1,1474.3333333333333,660) translate(2,48)"><text fill="#000000" stroke="none" font-family="Arial" font-size="20px" font-style="normal" font-weight="bold" text-decoration="none" x="66.99674479166666" y="20">SOGGETTO</text><text fill="#000000" stroke="none" font-family="Arial" font-size="20px" font-style="normal" font-weight="bold" text-decoration="none" x="85.89322916666666" y="40">UMANO</text></g><g transform="translate(0,0) matrix(1,0,0,1,1810,780)"><g><g transform="translate(0,0) scale(3.649999999999991,0.8705701636824199)"><g><path fill="#cfe2f3" stroke="none" d="M 0 0 L 100 0 Q 100 0 100 0 L 100 100 Q 100 100 100 100 L 0 100 Q 0 100 0 100 L 0 0 Q 0 0 0 0 Z"/><g transform="scale(0.2739726027397267,1.148672492714551)"><path fill="none" stroke="none" d="M 0 0 L 364.9999999999991 0 Q 364.9999999999991 0 364.9999999999991 0 L 364.9999999999991 87.05701636824199 Q 364.9999999999991 87.05701636824199 364.9999999999991 87.05701636824199 L 0 87.05701636824199 Q 0 87.05701636824199 0 87.05701636824199 L 0 0 Q 0 0 0 0 Z"/><path fill="none" stroke="#000000" d="M 0 0 M 0 0 L 364.9999999999991 0 Q 364.9999999999991 0 364.9999999999991 0 L 364.9999999999991 87.05701636824199 Q 364.9999999999991 87.05701636824199 364.9999999999991 87.05701636824199 L 0 87.05701636824199 Q 0 87.05701636824199 0 87.05701636824199 L 0 0 Q 0 0 0 0 Z" stroke-miterlimit="10" stroke-width="2"/></g></g></g></g></g><g transform="scale(1,1) matrix(1,0,0,1,1816.0833333333333,780) translate(2,23.028508184120994)"><text fill="#000000" stroke="none" font-family="Arial" font-size="36px" font-style="normal" font-weight="bold" text-decoration="none" x="44.41764322916626" y="33">TRANSAZIONE</text></g><g transform="translate(0,0) matrix(1,0,0,1,2450,300)"><g><g transform="translate(0,0) scale(2.5000000000000004,0.9850222742950018)"><g><g transform="scale(0.3999999999999999,1.0152054690496395)"><path fill="#fff2cc" stroke="none" d="M 125.00000000000003 0 L 250.00000000000006 49.25111371475009 L 125.00000000000003 98.50222742950018 L 0 49.25111371475009 L 125.00000000000003 0 Z"/><path fill="none" stroke="#000000" d="M 125.00000000000003 0 M 125.00000000000003 0 L 250.00000000000006 49.25111371475009 L 125.00000000000003 98.50222742950018 L 0 49.25111371475009 L 125.00000000000003 0 Z" stroke-miterlimit="10" stroke-width="2"/></g></g></g></g></g><g transform="scale(1,1) matrix(1,0,0,1,2454.1666666666665,300) translate(2,35.75111371475009)"><text fill="#000000" stroke="none" font-family="Arial" font-size="24px" font-style="normal" font-weight="bold" text-decoration="none" x="20.8294270833333" y="21">INSEGNAMENTO</text></g><g transform="translate(0,0) matrix(1,0,0,1,1470,840)"><g><g transform="translate(0,0) scale(2.6,1.4)"><g><g transform="scale(0.3846153846153846,0.7142857142857143)"><path fill="#fff2cc" stroke="none" d="M 130 0 L 260 70 L 130 140 L 0 70 L 130 0 Z"/><path fill="none" stroke="#000000" d="M 130 0 M 130 0 L 260 70 L 130 140 L 0 70 L 130 0 Z" stroke-miterlimit="10" stroke-width="2"/></g></g></g></g></g><g transform="scale(1,1) matrix(1,0,0,1,1474.3333333333333,840) translate(2,48)"><text fill="#000000" stroke="none" font-family="Arial" font-size="20px" font-style="normal" font-weight="bold" text-decoration="none" x="73.66666666666666" y="20">OGGETTO</text><text fill="#000000" stroke="none" font-family="Arial" font-size="20px" font-style="normal" font-weight="bold" text-decoration="none" x="85.89322916666666" y="40">UMANO</text></g><g transform="translate(0,0) matrix(1,0,0,1,2260,660)"><g><g transform="translate(0,0) scale(2.6,1.4)"><g><g transform="scale(0.3846153846153846,0.7142857142857143)"><path fill="#fff2cc" stroke="none" d="M 130 0 L 260 70 L 130 140 L 0 70 L 130 0 Z"/><path fill="none" stroke="#000000" d="M 130 0 M 130 0 L 260 70 L 130 140 L 0 70 L 130 0 Z" stroke-miterlimit="10" stroke-width="2"/></g></g></g></g></g><g transform="scale(1,1) matrix(1,0,0,1,2264.3333333333335,660) translate(2,48)"><text fill="#000000" stroke="none" font-family="Arial" font-size="20px" font-style="normal" font-weight="bold" text-decoration="none" x="66.99674479166666" y="20">SOGGETTO</text><text fill="#000000" stroke="none" font-family="Arial" font-size="20px" font-style="normal" font-weight="bold" text-decoration="none" x="102.55338541666666" y="40">NPC</text></g><g transform="translate(0,0) matrix(1,0,0,1,2260,840)"><g><g transform="translate(0,0) scale(2.6,1.4)"><g><g transform="scale(0.3846153846153846,0.7142857142857143)"><path fill="#fff2cc" stroke="none" d="M 130 0 L 260 70 L 130 140 L 0 70 L 130 0 Z"/><path fill="none" stroke="#000000" d="M 130 0 M 130 0 L 260 70 L 130 140 L 0 70 L 130 0 Z" stroke-miterlimit="10" stroke-width="2"/></g></g></g></g></g><g transform="scale(1,1) matrix(1,0,0,1,2264.3333333333335,840) translate(2,48)"><text fill="#000000" stroke="none" font-family="Arial" font-size="20px" font-style="normal" font-weight="bold" text-decoration="none" x="73.66666666666666" y="20">OGGETTO</text><text fill="#000000" stroke="none" font-family="Arial" font-size="20px" font-style="normal" font-weight="bold" text-decoration="none" x="102.55338541666666" y="40">NPC</text></g><g transform="matrix(1,0,0,1,1725.5,725.5)"><g transform="translate(0,0)"><g transform="translate(-1809.090909090909,-830.3030303030303) translate(83.59090909090901,104.80303030303025) matrix(1,0,0,1,0,0)"><g><path fill="none" stroke="#000000" d="M 1810 823.5285081841209 L 1780 823.5285081841209 Q 1770 823.5285081841209 1770 813.5285081841209 L 1770 740 Q 1770 730 1760 730 L 1730 730" stroke-miterlimit="10" stroke-width="2"/></g></g></g></g><g transform="matrix(1,0,0,1,1725.5,819.0285081841209)"><g transform="translate(0,0)"><g transform="translate(-1806.060606060606,-824.2424242424242) translate(80.560606060606,5.213916058303312) matrix(1,0,0,1,0,0)"><g><path fill="none" stroke="#000000" d="M 1810 823.5285081841209 L 1780 823.5285081841209 Q 1770 823.5285081841209 1770 833.5285081841209 L 1770 900 Q 1770 910 1760 910 L 1730 910" stroke-miterlimit="10" stroke-width="2"/></g></g></g></g><g transform="matrix(1,0,0,1,2170.499999999999,725.5)"><g transform="translate(0,0)"><g transform="translate(-2178.7878787878785,-824.2424242424242) translate(8.287878787879436,98.74242424242425) matrix(1,0,0,1,0,0)"><g><path fill="none" stroke="#000000" d="M 2174.999999999999 823.5285081841209 L 2207.4999999999995 823.5285081841209 Q 2217.4999999999995 823.5285081841209 2217.4999999999995 813.5285081841209 L 2217.4999999999995 740 Q 2217.4999999999995 730 2227.4999999999995 730 L 2260 730" stroke-miterlimit="10" stroke-width="2"/></g></g></g></g><g transform="matrix(1,0,0,1,2170.499999999999,819.0285081841209)"><g transform="translate(0,0)"><g transform="translate(-2178.7878787878785,-827.2727272727273) translate(8.287878787879436,8.244219088606314) matrix(1,0,0,1,0,0)"><g><path fill="none" stroke="#000000" d="M 2174.999999999999 823.5285081841209 L 2207.4999999999995 823.5285081841209 Q 2217.4999999999995 823.5285081841209 2217.4999999999995 833.5285081841209 L 2217.4999999999995 900 Q 2217.4999999999995 910 2227.4999999999995 910 L 2260 910" stroke-miterlimit="10" stroke-width="2"/></g></g></g></g><g transform="matrix(1,0,0,1,2460.499999999999,725.5)"><g transform="translate(0,0)"><g transform="translate(-2524.242424242424,-733.3333333333333) translate(63.74242424242493,7.8333333333332575) matrix(1,0,0,1,0,0)"><g><path fill="none" stroke="#000000" d="M 2520 730 L 2616.6666666666665 730 Q 2626.6666666666665 730 2626.6666666666665 740 L 2626.6666666666665 1286.969696969697 Q 2626.6666666666665 1296.969696969697 2616.6666666666665 1296.969696969697 L 2464.999999999999 1296.969696969697" stroke-miterlimit="10" stroke-width="2"/></g></g></g></g><g transform="matrix(1,0,0,1,2460.499999999999,913.6818181818181)"><g transform="translate(0,0)"><g transform="translate(-2518.181818181818,-918.1818181818181) translate(57.681818181818926,4.5) matrix(1,0,0,1,0,0)"><g><path fill="none" stroke="#000000" d="M 2518.181818181818 918.1818181818181 L 2518.181818181818 1283.4737955272458 Q 2518.181818181818 1293.4737955272458 2508.181818181818 1293.4737955272458 L 2464.999999999999 1293.4737955272458" stroke-miterlimit="10" stroke-width="2"/></g></g></g></g><g transform="matrix(1,0,0,1,2398.530303030303,344.7511137147501)"><g transform="translate(0,0)"><g transform="translate(-2706.060606060606,-345.45454545454544) translate(307.530303030303,0.7034317397953487) matrix(1,0,0,1,0,0)"><g><path fill="none" stroke="#000000" d="M 2700 349.2511137147501 L 2730 349.2511137147501 Q 2740 349.2511137147501 2740 359.2511137147501 L 2740 1353.927153736201 Q 2740 1363.927153736201 2730 1363.927153736201 L 2413.030303030303 1363.927153736201 Q 2403.030303030303 1363.927153736201 2403.030303030303 1353.927153736201 L 2403.030303030303 1323.927153736201" stroke-miterlimit="10" stroke-width="2"/></g></g></g></g><g transform="matrix(1,0,0,1,2011.4051334237902,1288.9737955272458)"><g transform="translate(0,0)"><g transform="translate(-2021.212121212121,-1293.9393939393938) translate(9.806987788330844,4.965598412147983) matrix(1,0,0,1,0,0)"><g><path fill="none" stroke="#000000" d="M 2015.9051334237902 1293.4737955272458 L 2108.93675561586 1293.4737955272458 Q 2118.93675561586 1293.4737955272458 2128.93675561586 1293.4737955272458 L 2211.9683778079293 1293.4737955272458 Q 2221.9683778079293 1293.4737955272458 2231.9683778079293 1293.4737955272458 L 2324.999999999999 1293.4737955272458" stroke-miterlimit="10" stroke-width="2"/></g></g></g></g><g transform="matrix(1,0,0,1,1300.8475204386252,1284.383621397893)"><g transform="translate(0,0)"><g transform="translate(-1730.3030303030303,-1300) translate(429.45550986440503,15.616378602107034) matrix(1,0,0,1,0,0)"><g><path fill="none" stroke="#000000" d="M 1730.0248074415465 1288.883621397893 L 1598.4657117739062 1288.883621397893 Q 1588.4657117739062 1288.883621397893 1578.4657117739062 1288.883621397893 L 1456.9066161062656 1288.883621397893 Q 1446.9066161062656 1288.883621397893 1436.9066161062656 1288.883621397893 L 1305.3475204386252 1288.883621397893" stroke-miterlimit="10" stroke-width="2"/></g></g></g></g><g transform="matrix(1,0,0,1,1199.525692080416,1074.580488524361)"><g transform="translate(0,0)"><g transform="translate(-1203.030303030303,-1075.7575757575758) translate(3.50461094988691,1.1770872332147064) matrix(1,0,0,1,0,0)"><g><path fill="none" stroke="#000000" d="M 1204.025692080416 1079.080488524361 L 1204.025692080416 1123.1815328155385 Q 1204.025692080416 1133.1815328155385 1204.025692080416 1143.1815328155385 L 1204.025692080416 1177.2825771067157 Q 1204.025692080416 1187.2825771067157 1204.025692080416 1197.2825771067157 L 1204.025692080416 1241.3836213978932" stroke-miterlimit="10" stroke-width="2"/></g></g></g></g><g transform="matrix(1,0,0,1,579.0447761194032,489.3868134210139)"><g transform="translate(0,0)"><g transform="translate(-1203.030303030303,-781.8181818181818) translate(623.9855269108998,292.43136839716783) matrix(1,0,0,1,0,0)"><g><path fill="none" stroke="#000000" d="M 1204.025692080416 781.2424110665885 L 1204.025692080416 647.5646122438012 Q 1204.025692080416 637.5646122438012 1194.025692080416 637.5646122438012 L 593.5447761194032 637.5646122438012 Q 583.5447761194032 637.5646122438012 583.5447761194032 627.5646122438012 L 583.5447761194032 493.8868134210139" stroke-miterlimit="10" stroke-width="2"/></g></g></g></g><g transform="matrix(1,0,0,1,1343.5513841608322,725.5)"><g transform="translate(0,0)"><g transform="translate(-1351.5151515151515,-824.2424242424242) translate(7.963767354319316,98.74242424242425) matrix(1,0,0,1,0,0)"><g><path fill="none" stroke="#000000" d="M 1348.0513841608322 824.4704487920714 L 1399.025692080416 824.4704487920714 Q 1409.025692080416 824.4704487920714 1409.025692080416 814.4704487920714 L 1409.025692080416 740 Q 1409.025692080416 730 1419.025692080416 730 L 1470 730" stroke-miterlimit="10" stroke-width="2"/></g></g></g></g><g transform="matrix(1,0,0,1,1343.5513841608322,819.9704487920714)"><g transform="translate(0,0)"><g transform="translate(-1342.4242424242423,-827.2727272727273) translate(-1.1271417365899197,7.3022784806559) matrix(1,0,0,1,0,0)"><g><path fill="none" stroke="#000000" d="M 1348.0513841608322 824.4704487920714 L 1399.025692080416 824.4704487920714 Q 1409.025692080416 824.4704487920714 1409.025692080416 834.4704487920714 L 1409.025692080416 900 Q 1409.025692080416 910 1419.025692080416 910 L 1470 910" stroke-miterlimit="10" stroke-width="2"/></g></g></g></g><g transform="matrix(1,0,0,1,1325.8030303030303,346.21558548584466)"><g transform="translate(0,0)"><g transform="translate(-1330.3030303030303,-784.8484848484848) translate(4.5,438.6328993626401) matrix(1,0,0,1,0,0)"><g><path fill="none" stroke="#000000" d="M 1330.3030303030303 781.2424110665885 L 1330.3030303030303 360.71558548584466 Q 1330.3030303030303 350.71558548584466 1340.3030303030303 350.71558548584466 L 1730 350.71558548584466" stroke-miterlimit="10" stroke-width="2"/></g></g></g></g><g transform="matrix(1,0,0,1,2002.4286752457303,342.3868134210139)"><g transform="translate(0,0)"><g transform="translate(-2006.060606060606,-345.45454545454544) translate(3.631930814875659,3.067732033531513) matrix(1,0,0,1,0,0)"><g><path fill="none" stroke="#000000" d="M 2006.9286752457303 346.8868134210139 L 2027.9524501638202 346.8868134210139 Q 2037.9524501638202 346.8868134210139 2047.9524501638202 346.8868134210139 L 2058.9762250819103 346.8868134210139 Q 2068.9762250819103 346.8868134210139 2078.9762250819103 346.8868134210139 L 2100 346.8868134210139" stroke-miterlimit="10" stroke-width="2"/></g></g></g></g><g transform="matrix(1,0,0,1,2299.5,342.3868134210139)"><g transform="translate(0,0)"><g transform="translate(-2303.030303030303,-345.45454545454544) translate(3.5303030303030027,3.067732033531513) matrix(1,0,0,1,0,0)"><g><path fill="none" stroke="#000000" d="M 2304 346.8868134210139 L 2342.6730474308806 346.8868134210139 Q 2352.6730474308806 346.8868134210139 2362.6730474308806 346.8868134210139 L 2391.3460948617617 346.8868134210139 Q 2401.3460948617617 346.8868134210139 2411.3460948617617 346.8868134210139 L 2450.0191422926423 346.8868134210139" stroke-miterlimit="10" stroke-width="2"/></g></g></g></g><g transform="translate(0,0) matrix(1,0,0,1,845,382.3868134210139)"><g><g transform="translate(0,0) scale(3.5,1.115)"><g><g transform="scale(0.2857142857142857,0.8968609865470852)"><path fill="#fff2cc" stroke="none" d="M 175 0 L 350 55.75 L 175 111.5 L 0 55.75 L 175 0 Z"/><path fill="none" stroke="#000000" d="M 175 0 M 175 0 L 350 55.75 L 175 111.5 L 0 55.75 L 175 0 Z" stroke-miterlimit="10" stroke-width="2"/></g></g></g></g></g><g transform="scale(1,1) matrix(1,0,0,1,850.8333333333334,382.3868134210139) translate(2,42.25)"><text fill="#000000" stroke="none" font-family="Arial" font-size="24px" font-style="normal" font-weight="bold" text-decoration="none" x="56.506510416666515" y="21">COMPLETAMENTO</text></g><g transform="matrix(1,0,0,1,1015.5,489.3868134210139)"><g transform="translate(0,0)"><g transform="translate(-1015.1515151515151,-496.96969696969694) translate(-0.3484848484848726,7.582883548683014) matrix(1,0,0,1,0,0)"><g><path fill="none" stroke="#000000" d="M 1020 493.8868134210139 L 1020 627.5646122438012 Q 1020 637.5646122438012 1030 637.5646122438012 L 1194.025692080416 637.5646122438012 Q 1204.025692080416 637.5646122438012 1204.025692080416 647.5646122438012 L 1204.025692080416 781.2424110665885" stroke-miterlimit="10" stroke-width="2"/></g></g></g></g><g transform="matrix(1,0,0,1,796.2462686567162,225.07711442786103)"><g transform="translate(0,0)"><g transform="translate(-1021.2121212121211,-381.8181818181818) translate(224.96585255540492,156.74106739032078) matrix(1,0,0,1,0,0)"><g><path fill="none" stroke="#000000" d="M 1020 382.3868134210139 L 1020 315.9819639244375 Q 1020 305.9819639244375 1010 305.9819639244375 L 810.7462686567162 305.9819639244375 Q 800.7462686567162 305.9819639244375 800.7462686567162 295.9819639244375 L 800.7462686567162 229.57711442786103" stroke-miterlimit="10" stroke-width="2"/></g></g></g></g><g transform="matrix(1,0,0,1,579.0447761194032,225.07711442786103)"><g transform="translate(0,0)"><g transform="translate(-587.8787878787879,-384.8484848484848) translate(8.83401175938468,159.77137042062378) matrix(1,0,0,1,0,0)"><g><path fill="none" stroke="#000000" d="M 583.5447761194032 382.3868134210139 L 583.5447761194032 315.9819639244375 Q 583.5447761194032 305.9819639244375 593.5447761194032 305.9819639244375 L 790.7462686567162 305.9819639244375 Q 800.7462686567162 305.9819639244375 800.7462686567162 295.9819639244375 L 800.7462686567162 229.57711442786103" stroke-miterlimit="10" stroke-width="2"/></g></g></g></g><g transform="matrix(1,0,0,1,1199.525692080416,863.1984865175542)"><g transform="translate(0,0)"><g transform="translate(-1209.090909090909,-1003.030303030303) translate(9.565217010492916,139.8318165127488) matrix(1,0,0,1,0,0)"><g><path fill="none" stroke="#000000" d="M 1204.025692080416 999.0033740965004 L 1204.025692080416 965.2350782368517 Q 1204.025692080416 955.2350782368517 1204.025692080416 945.2350782368517 L 1204.025692080416 921.4667823772029 Q 1204.025692080416 911.4667823772029 1204.025692080416 901.4667823772029 L 1204.025692080416 867.6984865175542" stroke-miterlimit="10" stroke-width="2"/></g></g></g></g></g></svg>