<svg version="1.1" xmlns="http://www.w3.org/2000/svg" xmlns:xlink="http://www.w3.org/1999/xlink" width="2050" height="453.25061391314466"><defs/><g transform="translate(0,0)"><g><rect fill="#FFFFFF" stroke="none" x="0" y="0" width="2050" height="453.25061391314466"/></g><g transform="translate(0,0) matrix(1,0,0,1,170,280)"><g><g transform="translate(0,0) scale(2.880513841608322,0.8645607545096573)"><g><path fill="#cfe2f3" stroke="none" d="M 0 0 L 100 0 Q 100 0 100 0 L 100 100 Q 100 100 100 100 L 0 100 Q 0 100 0 100 L 0 0 Q 0 0 0 0 Z"/><g transform="scale(0.34716028284788747,1.1566567124217408)"><path fill="none" stroke="none" d="M 0 0 L 288.0513841608322 0 Q 288.0513841608322 0 288.0513841608322 0 L 288.0513841608322 86.45607545096573 Q 288.0513841608322 86.45607545096573 288.0513841608322 86.45607545096573 L 0 86.45607545096573 Q 0 86.45607545096573 0 86.45607545096573 L 0 0 Q 0 0 0 0 Z"/><path fill="none" stroke="#000000" d="M 0 0 M 0 0 L 288.0513841608322 0 Q 288.0513841608322 0 288.0513841608322 0 L 288.0513841608322 86.45607545096573 Q 288.0513841608322 86.45607545096573 288.0513841608322 86.45607545096573 L 0 86.45607545096573 Q 0 86.45607545096573 0 86.45607545096573 L 0 0 Q 0 0 0 0 Z" stroke-miterlimit="10" stroke-width="2"/></g></g></g></g></g><g transform="scale(1,1) matrix(1,0,0,1,174.80085640268052,280) translate(2,22.728037725482864)"><text fill="#000000" stroke="none" font-family="Arial" font-size="36px" font-style="normal" font-weight="bold" text-decoration="none" x="1.2053044277355411" y="33">PERSONAGGIO</text></g><g transform="translate(0,0) matrix(1,0,0,1,1860,280)"><g><g transform="translate(0,0) scale(1.7,0.8325061391314467)"><g><path fill="#cfe2f3" stroke="none" d="M 0 0 L 100 0 Q 100 0 100 0 L 100 100 Q 100 100 100 100 L 0 100 Q 0 100 0 100 L 0 0 Q 0 0 0 0 Z"/><g transform="scale(0.5882352941176471,1.2011923432099847)"><path fill="none" stroke="none" d="M 0 0 L 170 0 Q 170 0 170 0 L 170 83.25061391314466 Q 170 83.25061391314466 170 83.25061391314466 L 0 83.25061391314466 Q 0 83.25061391314466 0 83.25061391314466 L 0 0 Q 0 0 0 0 Z"/><path fill="none" stroke="#000000" d="M 0 0 M 0 0 L 170 0 Q 170 0 170 0 L 170 83.25061391314466 Q 170 83.25061391314466 170 83.25061391314466 L 0 83.25061391314466 Q 0 83.25061391314466 0 83.25061391314466 L 0 0 Q 0 0 0 0 Z" stroke-miterlimit="10" stroke-width="2"/></g></g></g></g></g><g transform="scale(1,1) matrix(1,0,0,1,1862.8333333333333,280) translate(2,21.12530695657233)"><text fill="#000000" stroke="none" font-family="Arial" font-size="36px" font-style="normal" font-weight="bold" text-decoration="none" x="42.16276041666666" y="33">NPC</text></g><g transform="translate(0,0) matrix(1,0,0,1,900,280.00000000000006)"><g><g transform="translate(0,0) scale(3.649999999999991,0.8705701636824199)"><g><path fill="#cfe2f3" stroke="none" d="M 0 0 L 100 0 Q 100 0 100 0 L 100 100 Q 100 100 100 100 L 0 100 Q 0 100 0 100 L 0 0 Q 0 0 0 0 Z"/><g transform="scale(0.2739726027397267,1.148672492714551)"><path fill="none" stroke="none" d="M 0 0 L 364.9999999999991 0 Q 364.9999999999991 0 364.9999999999991 0 L 364.9999999999991 87.05701636824199 Q 364.9999999999991 87.05701636824199 364.9999999999991 87.05701636824199 L 0 87.05701636824199 Q 0 87.05701636824199 0 87.05701636824199 L 0 0 Q 0 0 0 0 Z"/><path fill="none" stroke="#000000" d="M 0 0 M 0 0 L 364.9999999999991 0 Q 364.9999999999991 0 364.9999999999991 0 L 364.9999999999991 87.05701636824199 Q 364.9999999999991 87.05701636824199 364.9999999999991 87.05701636824199 L 0 87.05701636824199 Q 0 87.05701636824199 0 87.05701636824199 L 0 0 Q 0 0 0 0 Z" stroke-miterlimit="10" stroke-width="2"/></g></g></g></g></g><g transform="scale(1,1) matrix(1,0,0,1,906.0833333333334,280.00000000000006) translate(2,23.028508184120994)"><text fill="#000000" stroke="none" font-family="Arial" font-size="36px" font-style="normal" font-weight="bold" text-decoration="none" x="44.41764322916626" y="33">TRANSAZIONE</text></g><g transform="translate(0,0) matrix(1,0,0,1,590,230)"><g><g transform="translate(0,0) scale(1.7,0.7)"><g><g transform="scale(0.5882352941176471,1.4285714285714286)"><path fill="#fff2cc" stroke="none" d="M 85 0 L 170 35 L 85 70 L 0 35 L 85 0 Z"/><path fill="none" stroke="#000000" d="M 85 0 M 85 0 L 170 35 L 85 70 L 0 35 L 85 0 Z" stroke-miterlimit="10" stroke-width="2"/></g></g></g></g></g><g transform="scale(1,1) matrix(1,0,0,1,592.8333333333334,230) translate(2,24)"><text fill="#000000" stroke="none" font-family="Arial" font-size="20px" font-style="normal" font-weight="bold" text-decoration="none" x="23.496744791666657" y="20">SOGGETTO</text></g><g transform="translate(0,0) matrix(1,0,0,1,590,350.6820297521841)"><g><g transform="translate(0,0) scale(1.7,0.7)"><g><g transform="scale(0.5882352941176471,1.4285714285714286)"><path fill="#fff2cc" stroke="none" d="M 85 0 L 170 35 L 85 70 L 0 35 L 85 0 Z"/><path fill="none" stroke="#000000" d="M 85 0 M 85 0 L 170 35 L 85 70 L 0 35 L 85 0 Z" stroke-miterlimit="10" stroke-width="2"/></g></g></g></g></g><g transform="scale(1,1) matrix(1,0,0,1,592.8333333333334,350.6820297521841) translate(2,24)"><text fill="#000000" stroke="none" font-family="Arial" font-size="20px" font-style="normal" font-weight="bold" text-decoration="none" x="30.166666666666657" y="20">OGGETTO</text></g><g transform="translate(0,0) matrix(1,0,0,1,1480,230)"><g><g transform="translate(0,0) scale(1.7,0.7)"><g><g transform="scale(0.5882352941176471,1.4285714285714286)"><path fill="#fff2cc" stroke="none" d="M 85 0 L 170 35 L 85 70 L 0 35 L 85 0 Z"/><path fill="none" stroke="#000000" d="M 85 0 M 85 0 L 170 35 L 85 70 L 0 35 L 85 0 Z" stroke-miterlimit="10" stroke-width="2"/></g></g></g></g></g><g transform="scale(1,1) matrix(1,0,0,1,1482.8333333333333,230) translate(2,24)"><text fill="#000000" stroke="none" font-family="Arial" font-size="20px" font-style="normal" font-weight="bold" text-decoration="none" x="23.496744791666657" y="20">SOGGETTO</text></g><g transform="translate(0,0) matrix(1,0,0,1,1480,363.25061391314466)"><g><g transform="translate(0,0) scale(1.7,0.7)"><g><g transform="scale(0.5882352941176471,1.4285714285714286)"><path fill="#fff2cc" stroke="none" d="M 85 0 L 170 35 L 85 70 L 0 35 L 85 0 Z"/><path fill="none" stroke="#000000" d="M 85 0 M 85 0 L 170 35 L 85 70 L 0 35 L 85 0 Z" stroke-miterlimit="10" stroke-width="2"/></g></g></g></g></g><g transform="scale(1,1) matrix(1,0,0,1,1482.8333333333333,363.25061391314466) translate(2,24)"><text fill="#000000" stroke="none" font-family="Arial" font-size="20px" font-style="normal" font-weight="bold" text-decoration="none" x="30.166666666666657" y="20">OGGETTO</text></g><g transform="matrix(1,0,0,1,453.5513841608322,260.5)"><g transform="translate(0,0)"><g transform="translate(-460.60606060606057,-321.2121212121212) translate(7.054676445228381,60.71212121212119) matrix(1,0,0,1,0,0)"><g><path fill="none" stroke="#000000" d="M 458.0513841608322 323.22803772548286 L 514.0256920804161 323.22803772548286 Q 524.0256920804161 323.22803772548286 524.0256920804161 313.22803772548286 L 524.0256920804161 275 Q 524.0256920804161 265 534.0256920804161 265 L 590 265" stroke-miterlimit="10" stroke-width="2"/></g></g></g></g><g transform="matrix(1,0,0,1,755.5,260.5)"><g transform="translate(0,0)"><g transform="translate(-760.6060606060606,-257.57575757575756) translate(5.106060606060623,-2.9242424242424363) matrix(1,0,0,1,0,0)"><g><path fill="none" stroke="#000000" d="M 760 265 L 820 265 Q 830 265 830 275 L 830 313.52850818412105 Q 830 323.52850818412105 840 323.52850818412105 L 900 323.52850818412105" stroke-miterlimit="10" stroke-width="2"/></g></g></g></g><g transform="matrix(1,0,0,1,755.5,319.02850818412105)"><g transform="translate(0,0)"><g transform="translate(-754.5454545454545,-381.8181818181818) translate(-0.9545454545454959,62.78967363406076) matrix(1,0,0,1,0,0)"><g><path fill="none" stroke="#000000" d="M 760 385.6820297521841 L 820 385.6820297521841 Q 830 385.6820297521841 830 375.6820297521841 L 830 333.52850818412105 Q 830 323.52850818412105 840 323.52850818412105 L 900 323.52850818412105" stroke-miterlimit="10" stroke-width="2"/></g></g></g></g><g transform="matrix(1,0,0,1,453.5513841608322,318.72803772548286)"><g transform="translate(0,0)"><g transform="translate(-587.8787878787879,-384.8484848484848) translate(134.3274037179557,66.12044712300195) matrix(1,0,0,1,0,0)"><g><path fill="none" stroke="#000000" d="M 590 385.6820297521841 L 534.0256920804161 385.6820297521841 Q 524.0256920804161 385.6820297521841 524.0256920804161 375.6820297521841 L 524.0256920804161 333.22803772548286 Q 524.0256920804161 323.22803772548286 514.0256920804161 323.22803772548286 L 458.0513841608322 323.22803772548286" stroke-miterlimit="10" stroke-width="2"/></g></g></g></g><g transform="matrix(1,0,0,1,1260.499999999999,260.5)"><g transform="translate(0,0)"><g transform="translate(-1260.6060606060605,-333.3333333333333) translate(0.1060606060614191,72.83333333333331) matrix(1,0,0,1,0,0)"><g><path fill="none" stroke="#000000" d="M 1264.999999999999 333.3333333333333 L 1362.4999999999995 333.3333333333333 Q 1372.4999999999995 333.3333333333333 1372.4999999999995 323.3333333333333 L 1372.4999999999995 275 Q 1372.4999999999995 265 1382.4999999999995 265 L 1480 265" stroke-miterlimit="10" stroke-width="2"/></g></g></g></g><g transform="matrix(1,0,0,1,1260.499999999999,328.8333333333333)"><g transform="translate(0,0)"><g transform="translate(-1272.7272727272727,-333.3333333333333) translate(12.227272727273657,4.5) matrix(1,0,0,1,0,0)"><g><path fill="none" stroke="#000000" d="M 1264.999999999999 333.3333333333333 L 1362.4999999999995 333.3333333333333 Q 1372.4999999999995 333.3333333333333 1372.4999999999995 343.3333333333333 L 1372.4999999999995 388.25061391314466 Q 1372.4999999999995 398.25061391314466 1382.4999999999995 398.25061391314466 L 1480 398.25061391314466" stroke-miterlimit="10" stroke-width="2"/></g></g></g></g><g transform="matrix(1,0,0,1,1645.5,260.5)"><g transform="translate(0,0)"><g transform="translate(-1854.5454545454545,-318.1818181818182) translate(209.0454545454545,57.68181818181819) matrix(1,0,0,1,0,0)"><g><path fill="none" stroke="#000000" d="M 1860 321.62530695657233 L 1765 321.62530695657233 Q 1755 321.62530695657233 1755 311.62530695657233 L 1755 275 Q 1755 265 1745 265 L 1650 265" stroke-miterlimit="10" stroke-width="2"/></g></g></g></g><g transform="matrix(1,0,0,1,1645.5,317.12530695657233)"><g transform="translate(0,0)"><g transform="translate(-1648.4848484848485,-396.96969696969694) translate(2.9848484848484986,79.84439001312461) matrix(1,0,0,1,0,0)"><g><path fill="none" stroke="#000000" d="M 1650 398.25061391314466 L 1745 398.25061391314466 Q 1755 398.25061391314466 1755 388.25061391314466 L 1755 331.62530695657233 Q 1755 321.62530695657233 1765 321.62530695657233 L 1860 321.62530695657233" stroke-miterlimit="10" stroke-width="2"/></g></g></g></g></g></svg>