<svg version="1.1" xmlns="http://www.w3.org/2000/svg" xmlns:xlink="http://www.w3.org/1999/xlink" width="1168.0513841608322" height="329.83852211124923"><defs/><g transform="translate(0,0)"><g><rect fill="#FFFFFF" stroke="none" x="0" y="0" width="1168.0513841608322" height="329.83852211124923"/></g><g transform="translate(0,0) matrix(1,0,0,1,860,221.08093317783772)"><g><g transform="translate(0,0) scale(2.880513841608322,0.8645607545096573)"><g><path fill="#cfe2f3" stroke="none" d="M 0 0 L 100 0 Q 100 0 100 0 L 100 100 Q 100 100 100 100 L 0 100 Q 0 100 0 100 L 0 0 Q 0 0 0 0 Z"/><g transform="scale(0.34716028284788747,1.1566567124217408)"><path fill="none" stroke="none" d="M 0 0 L 288.0513841608322 0 Q 288.0513841608322 0 288.0513841608322 0 L 288.0513841608322 86.45607545096573 Q 288.0513841608322 86.45607545096573 288.0513841608322 86.45607545096573 L 0 86.45607545096573 Q 0 86.45607545096573 0 86.45607545096573 L 0 0 Q 0 0 0 0 Z"/><path fill="none" stroke="#000000" d="M 0 0 M 0 0 L 288.0513841608322 0 Q 288.0513841608322 0 288.0513841608322 0 L 288.0513841608322 86.45607545096573 Q 288.0513841608322 86.45607545096573 288.0513841608322 86.45607545096573 L 0 86.45607545096573 Q 0 86.45607545096573 0 86.45607545096573 L 0 0 Q 0 0 0 0 Z" stroke-miterlimit="10" stroke-width="2"/></g></g></g></g></g><g transform="scale(1,1) matrix(1,0,0,1,864.8008564026806,221.08093317783772) translate(2,22.728037725482864)"><text fill="#000000" stroke="none" font-family="Arial" font-size="36px" font-style="normal" font-weight="bold" text-decoration="none" x="1.2053044277355411" y="33">PERSONAGGIO</text></g><g transform="translate(0,0) matrix(1,0,0,1,50,219.83852211124923)"><g><g transform="translate(0,0) scale(2.2,0.9)"><g><path fill="#cfe2f3" stroke="none" d="M 0 0 L 100 0 Q 100 0 100 0 L 100 100 Q 100 100 100 100 L 0 100 Q 0 100 0 100 L 0 0 Q 0 0 0 0 Z"/><g transform="scale(0.45454545454545453,1.1111111111111112)"><path fill="none" stroke="none" d="M 0 0 L 220.00000000000003 0 Q 220.00000000000003 0 220.00000000000003 0 L 220.00000000000003 90 Q 220.00000000000003 90 220.00000000000003 90 L 0 90 Q 0 90 0 90 L 0 0 Q 0 0 0 0 Z"/><path fill="none" stroke="#000000" d="M 0 0 M 0 0 L 220.00000000000003 0 Q 220.00000000000003 0 220.00000000000003 0 L 220.00000000000003 90 Q 220.00000000000003 90 220.00000000000003 90 L 0 90 Q 0 90 0 90 L 0 0 Q 0 0 0 0 Z" stroke-miterlimit="10" stroke-width="2"/></g></g></g></g></g><g transform="scale(1,1) matrix(1,0,0,1,53.66666666666667,219.83852211124923) translate(2,24.5)"><text fill="#000000" stroke="none" font-family="Arial" font-size="36px" font-style="normal" font-weight="bold" text-decoration="none" x="32.33333333333334" y="33">UTENTE</text></g><g transform="translate(0,0) matrix(1,0,0,1,460,221.08093317783772)"><g><g transform="translate(0,0) scale(1.970895522388062,0.8875758893341152)"><g><g transform="scale(0.5073835668307454,1.126664223326558)"><path fill="#fff2cc" stroke="none" d="M 98.5447761194031 0 L 197.0895522388062 44.37879446670576 L 98.5447761194031 88.75758893341153 L 0 44.37879446670576 L 98.5447761194031 0 Z"/><path fill="none" stroke="#000000" d="M 98.5447761194031 0 M 98.5447761194031 0 L 197.0895522388062 44.37879446670576 L 98.5447761194031 88.75758893341153 L 0 44.37879446670576 L 98.5447761194031 0 Z" stroke-miterlimit="10" stroke-width="2"/></g></g></g></g></g><g transform="scale(1,1) matrix(1,0,0,1,463.2848258706468,221.08093317783772) translate(2,30.878794466705763)"><text fill="#000000" stroke="none" font-family="Arial" font-size="13px" font-style="normal" font-weight="bold" text-decoration="none" x="24.568543998756297" y="21">&#160;</text><text fill="#000000" stroke="none" font-family="Arial" font-size="24px" font-style="normal" font-weight="bold" text-decoration="none" x="28.568543998756297" y="21">POSSESSO</text></g><g transform="matrix(1,0,0,1,265.5,260.33852211124923)"><g transform="translate(0,0)"><g transform="translate(-266.66666666666663,-263.6363636363636) translate(1.1666666666666288,3.297841525114393) matrix(1,0,0,1,0,0)"><g><path fill="none" stroke="#000000" d="M 270 264.83852211124923 L 323.3336718379678 264.83852211124923 Q 333.3336718379678 264.83852211124923 343.3336718379678 264.83852211124923 L 386.6673436759356 264.83852211124923 Q 396.6673436759356 264.83852211124923 406.6673436759356 264.83852211124923 L 460.00101551390344 264.83852211124923" stroke-miterlimit="10" stroke-width="2"/></g></g></g></g><g transform="matrix(1,0,0,1,652.5862891480084,259.8089709033206)"><g transform="translate(0,0)"><g transform="translate(-654.5454545454545,-260.60606060606057) translate(1.9591653974460996,0.7970897027399815) matrix(1,0,0,1,0,0)"><g><path fill="none" stroke="#000000" d="M 657.0862891480084 264.3089709033207 L 714.7241927653389 264.30897090332064 Q 724.7241927653389 264.30897090332064 734.7241927653389 264.30897090332064 L 782.3620963826695 264.30897090332064 Q 792.3620963826695 264.30897090332064 802.3620963826695 264.30897090332064 L 860 264.3089709033206" stroke-miterlimit="10" stroke-width="2"/></g></g></g></g></g></svg>