<svg version="1.1" xmlns="http://www.w3.org/2000/svg" xmlns:xlink="http://www.w3.org/1999/xlink" width="1168.0513841608322" height="737.6804768424753"><defs/><g transform="translate(0,0)"><g><rect fill="#FFFFFF" stroke="none" x="0" y="0" width="1168.0513841608322" height="737.6804768424753"/></g><g transform="translate(0,0) matrix(1,0,0,1,860,221.08093317783772)"><g><g transform="translate(0,0) scale(2.880513841608322,0.8645607545096573)"><g><path fill="#cfe2f3" stroke="none" d="M 0 0 L 100 0 Q 100 0 100 0 L 100 100 Q 100 100 100 100 L 0 100 Q 0 100 0 100 L 0 0 Q 0 0 0 0 Z"/><g transform="scale(0.34716028284788747,1.1566567124217408)"><path fill="none" stroke="none" d="M 0 0 L 288.0513841608322 0 Q 288.0513841608322 0 288.0513841608322 0 L 288.0513841608322 86.45607545096573 Q 288.0513841608322 86.45607545096573 288.0513841608322 86.45607545096573 L 0 86.45607545096573 Q 0 86.45607545096573 0 86.45607545096573 L 0 0 Q 0 0 0 0 Z"/><path fill="none" stroke="#000000" d="M 0 0 M 0 0 L 288.0513841608322 0 Q 288.0513841608322 0 288.0513841608322 0 L 288.0513841608322 86.45607545096573 Q 288.0513841608322 86.45607545096573 288.0513841608322 86.45607545096573 L 0 86.45607545096573 Q 0 86.45607545096573 0 86.45607545096573 L 0 0 Q 0 0 0 0 Z" stroke-miterlimit="10" stroke-width="2"/></g></g></g></g></g><g transform="scale(1,1) matrix(1,0,0,1,864.8008564026806,221.08093317783772) translate(2,22.728037725482864)"><text fill="#000000" stroke="none" font-family="Arial" font-size="36px" font-style="normal" font-weight="bold" text-decoration="none" x="1.2053044277355411" y="33">PERSONAGGIO</text></g><g transform="translate(0,0) matrix(1,0,0,1,50,219.83852211124923)"><g><g transform="translate(0,0) scale(2.2,0.9)"><g><path fill="#cfe2f3" stroke="none" d="M 0 0 L 100 0 Q 100 0 100 0 L 100 100 Q 100 100 100 100 L 0 100 Q 0 100 0 100 L 0 0 Q 0 0 0 0 Z"/><g transform="scale(0.45454545454545453,1.1111111111111112)"><path fill="none" stroke="none" d="M 0 0 L 220.00000000000003 0 Q 220.00000000000003 0 220.00000000000003 0 L 220.00000000000003 90 Q 220.00000000000003 90 220.00000000000003 90 L 0 90 Q 0 90 0 90 L 0 0 Q 0 0 0 0 Z"/><path fill="none" stroke="#000000" d="M 0 0 M 0 0 L 220.00000000000003 0 Q 220.00000000000003 0 220.00000000000003 0 L 220.00000000000003 90 Q 220.00000000000003 90 220.00000000000003 90 L 0 90 Q 0 90 0 90 L 0 0 Q 0 0 0 0 Z" stroke-miterlimit="10" stroke-width="2"/></g></g></g></g></g><g transform="scale(1,1) matrix(1,0,0,1,53.66666666666667,219.83852211124923) translate(2,24.5)"><text fill="#000000" stroke="none" font-family="Arial" font-size="36px" font-style="normal" font-weight="bold" text-decoration="none" x="32.33333333333334" y="33">UTENTE</text></g><g transform="translate(0,0) matrix(1,0,0,1,460,221.08093317783772)"><g><g transform="translate(0,0) scale(1.970895522388062,0.8875758893341152)"><g><g transform="scale(0.5073835668307454,1.126664223326558)"><path fill="#fff2cc" stroke="none" d="M 98.5447761194031 0 L 197.0895522388062 44.37879446670576 L 98.5447761194031 88.75758893341153 L 0 44.37879446670576 L 98.5447761194031 0 Z"/><path fill="none" stroke="#000000" d="M 98.5447761194031 0 M 98.5447761194031 0 L 197.0895522388062 44.37879446670576 L 98.5447761194031 88.75758893341153 L 0 44.37879446670576 L 98.5447761194031 0 Z" stroke-miterlimit="10" stroke-width="2"/></g></g></g></g></g><g transform="scale(1,1) matrix(1,0,0,1,463.2848258706468,221.08093317783772) translate(2,30.878794466705763)"><text fill="#000000" stroke="none" font-family="Arial" font-size="13px" font-style="normal" font-weight="bold" text-decoration="none" x="24.568543998756297" y="21">&#160;</text><text fill="#000000" stroke="none" font-family="Arial" font-size="24px" font-style="normal" font-weight="bold" text-decoration="none" x="28.568543998756297" y="21">POSSESSO</text></g><g transform="matrix(1,0,0,1,265.5,260.33852211124923)"><g transform="translate(0,0)"><g transform="translate(-266.66666666666663,-263.6363636363636) translate(1.1666666666666288,3.297841525114393) matrix(1,0,0,1,0,0)"><g><path fill="none" stroke="#000000" d="M 270 264.83852211124923 L 323.3336718379678 264.83852211124923 Q 333.3336718379678 264.83852211124923 343.3336718379678 264.83852211124923 L 386.6673436759356 264.83852211124923 Q 396.6673436759356 264.83852211124923 406.6673436759356 264.83852211124923 L 460.00101551390344 264.83852211124923" stroke-miterlimit="10" stroke-width="2"/></g></g></g></g><g transform="matrix(1,0,0,1,652.5862891480084,259.8089709033206)"><g transform="translate(0,0)"><g transform="translate(-654.5454545454545,-260.60606060606057) translate(1.9591653974460996,0.7970897027399815) matrix(1,0,0,1,0,0)"><g><path fill="none" stroke="#000000" d="M 657.0862891480084 264.3089709033207 L 714.7241927653389 264.30897090332064 Q 724.7241927653389 264.30897090332064 734.7241927653389 264.30897090332064 L 782.3620963826695 264.30897090332064 Q 792.3620963826695 264.30897090332064 802.3620963826695 264.30897090332064 L 860 264.3089709033206" stroke-miterlimit="10" stroke-width="2"/></g></g></g></g><g transform="translate(0,0) matrix(1,0,0,1,49.999999999999986,644.7638101758087)"><g><g transform="translate(0,0) scale(2.1965145468664504,0.7291666666666664)"><g><path fill="#cfe2f3" stroke="none" d="M 0 0 L 100 0 Q 100 0 100 0 L 100 100 Q 100 100 100 100 L 0 100 Q 0 100 0 100 L 0 0 Q 0 0 0 0 Z"/><g transform="scale(0.45526673220835295,1.3714285714285719)"><path fill="none" stroke="none" d="M 0 0 L 219.65145468664505 0 Q 219.65145468664505 0 219.65145468664505 0 L 219.65145468664505 72.91666666666664 Q 219.65145468664505 72.91666666666664 219.65145468664505 72.91666666666664 L 0 72.91666666666664 Q 0 72.91666666666664 0 72.91666666666664 L 0 0 Q 0 0 0 0 Z"/><path fill="none" stroke="#000000" d="M 0 0 M 0 0 L 219.65145468664505 0 Q 219.65145468664505 0 219.65145468664505 0 L 219.65145468664505 72.91666666666664 Q 219.65145468664505 72.91666666666664 219.65145468664505 72.91666666666664 L 0 72.91666666666664 Q 0 72.91666666666664 0 72.91666666666664 L 0 0 Q 0 0 0 0 Z" stroke-miterlimit="10" stroke-width="2"/></g></g></g></g></g><g transform="scale(1,1) matrix(1,0,0,1,53.660857578110736,644.7638101758087) translate(2,15.958333333333321)"><text fill="#000000" stroke="none" font-family="Arial" font-size="36px" font-style="normal" font-weight="bold" text-decoration="none" x="2.167799452711762" y="33">PRODOTTO</text></g><g transform="translate(0,0) matrix(1,0,0,1,59.12906662694371,478.88045342168016)"><g><g transform="translate(0,0) scale(1.9819848426388966,0.9019556428676515)"><g><g transform="scale(0.5045447263201865,1.108701972106554)"><path fill="#fff2cc" stroke="none" d="M 99.09924213194483 0 L 198.19848426388967 45.097782143382574 L 99.09924213194483 90.19556428676515 L 0 45.097782143382574 L 99.09924213194483 0 Z"/><path fill="none" stroke="#000000" d="M 99.09924213194483 0 M 99.09924213194483 0 L 198.19848426388967 45.097782143382574 L 99.09924213194483 90.19556428676515 L 0 45.097782143382574 L 99.09924213194483 0 Z" stroke-miterlimit="10" stroke-width="2"/></g></g></g></g></g><g transform="scale(1,1) matrix(1,0,0,1,62.43237469800854,478.88045342168016) translate(2,31.597782143382574)"><text fill="#000000" stroke="none" font-family="Arial" font-size="24px" font-style="normal" font-weight="bold" text-decoration="none" x="27.133824685879972" y="21">CARRELLO</text></g><g transform="matrix(1,0,0,1,155.5,305.33852211124923)"><g transform="translate(0,0)"><g transform="translate(-0.5298244949988913,-452.9112087360181) translate(-154.97017550500112,147.5726866247689) matrix(1,0,0,1,0,0)"><g><path fill="none" stroke="#000000" d="M 160 309.83852211124923 L 160 366.1889272473402 L 160 422.53933238343114 L 160 478.8897375195221" stroke-miterlimit="10" stroke-width="2"/></g></g></g></g><g transform="matrix(1,0,0,1,153.72830875888855,564.5760177084453)"><g transform="translate(0,0)"><g transform="translate(-135.94875903532073,-577.8278754026846) translate(-17.77954972356781,13.251857694239334) matrix(1,0,0,1,0,0)"><g><path fill="none" stroke="#000000" d="M 158.22830875888855 569.0760177084453 L 158.22830875888855 594.3109002560366 L 158.22830875888855 619.545782803628 L 158.22830875888855 644.7806653512192" stroke-miterlimit="10" stroke-width="2"/></g></g></g></g><g transform="translate(0,0) matrix(1,0,0,1,327.03951438813755,478.88045342168016)"><g><g transform="translate(0,0) scale(2.0261194029850764,0.908655419222905)"><g><g transform="scale(0.493554327808471,1.1005271952873117)"><path fill="#fff2cc" stroke="none" d="M 101.30597014925382 0 L 202.61194029850765 45.43277096114525 L 101.30597014925382 90.8655419222905 L 0 45.43277096114525 L 101.30597014925382 0 Z"/><path fill="none" stroke="#000000" d="M 101.30597014925382 0 M 101.30597014925382 0 L 202.61194029850765 45.43277096114525 L 101.30597014925382 90.8655419222905 L 0 45.43277096114525 L 101.30597014925382 0 Z" stroke-miterlimit="10" stroke-width="2"/></g></g></g></g></g><g transform="scale(1,1) matrix(1,0,0,1,330.4163800597793,478.88045342168016) translate(2,31.932770961145252)"><text fill="#000000" stroke="none" font-family="Arial" font-size="24px" font-style="normal" font-weight="bold" text-decoration="none" x="19.73379197761203" y="21">&#160;PROPRIETA'</text></g><g transform="matrix(1,0,0,1,155.5,305.33852211124923)"><g transform="translate(0,0)"><g transform="translate(-12.529824494998891,-454.2445420693514) translate(-142.97017550500112,148.90601995810215) matrix(1,0,0,1,0,0)"><g><path fill="none" stroke="#000000" d="M 160 309.83852211124923 L 160 394.35948776646467 L 428.34548453739137 394.35948776646467 L 428.34548453739137 478.88045342168016" stroke-miterlimit="10" stroke-width="2"/></g></g></g></g><g transform="matrix(1,0,0,1,265.151454686645,565.2459953439707)"><g transform="translate(0,0)"><g transform="translate(-486.75709673165596,-591.4389865137957) translate(221.60564204501094,26.192991169825063) matrix(1,0,0,1,0,0)"><g><path fill="none" stroke="#000000" d="M 428.34548453739137 569.7459953439707 L 428.34548453739137 681.222143509142 L 269.651454686645 681.222143509142" stroke-miterlimit="10" stroke-width="2"/></g></g></g></g></g></svg>